 <svg  version="1.0" xmlns="http://www.w3.org/2000/svg"  width="450.000000pt" height="450.000000pt" viewBox="0 0 450.000000 450.000000"  preserveAspectRatio="xMidYMid meet">  <g transform="translate(0.000000,450.000000) scale(0.100000,-0.100000)" fill="#4ed0c1" stroke="none"> <path d="M2198 3075 c-3 -3 -182 -5 -398 -6 -236 0 -400 -4 -411 -10 -21 -11 -15 -41 7 -32 10 4 14 -3 14 -21 0 -14 5 -26 10 -26 6 0 26 -18 46 -40 20 -22 41 -37 48 -33 6 3 8 3 4 -2 -10 -11 30 -65 48 -65 8 0 14 -4 14 -8 0 -5 24 -33 53 -64 l52 -54 411 1 c431 0 443 2 444 44 1 10 6 6 16 -11 9 -17 24 -28 37 -29 12 -1 107 -3 211 -5 104 -2 194 -8 199 -13 5 -5 16 -7 23 -4 10 3 12 0 8 -10 -3 -10 6 -26 25 -43 18 -15 31 -37 31 -50 0 -13 9 -29 20 -37 13 -9 19 -23 17 -45 -1 -18 -6 -32 -10 -32 -5 0 -7 -8 -5 -17 2 -9 -7 -27 -19 -40 -13 -12 -23 -30 -23 -40 0 -10 -10 -24 -22 -30 -67 -35 -107 -51 -124 -50 -10 1 -23 -7 -28 -18 -12 -21 -46 -33 -46 -15 0 5 -10 10 -22 11 -22 1 -22 1 2 9 21 7 22 8 5 9 -12 1 -26 -4 -33 -11 -9 -9 -13 -8 -17 3 -5 14 -52 18 -73 5 -6 -3 -8 -14 -5 -23 5 -13 -1 -15 -45 -10 -29 3 -52 1 -52 -3 0 -6 -9 -6 -22 -1 -13 5 -22 14 -20 20 3 16 -9 13 -25 -6 -14 -17 -14 -17 -10 3 4 18 0 20 -30 19 -19 0 -37 3 -39 7 -3 4 -13 4 -23 -1 -10 -6 -23 -6 -31 -1 -15 9 -54 -16 -45 -29 5 -10 -128 -7 -143 3 -14 9 -41 -18 -42 -42 0 -14 23 -42 35 -42 4 0 13 -7 22 -15 8 -8 19 -13 24 -10 5 4 9 -5 9 -19 0 -17 9 -32 27 -43 15 -10 53 -44 85 -77 32 -32 58 -53 58 -47 0 7 4 10 10 6 5 -3 7 -11 4 -18 -6 -16 32 -57 51 -57 8 0 15 -4 15 -10 0 -5 7 -7 15 -4 8 4 15 2 15 -4 0 -6 -6 -13 -12 -15 -8 -3 -6 -6 4 -6 10 -1 17 -4 16 -8 -5 -17 24 -54 37 -49 8 3 17 1 21 -5 4 -6 13 -4 24 6 18 16 18 16 13 -7 -4 -12 -10 -26 -16 -29 -13 -9 24 -49 45 -49 10 0 18 -6 18 -14 0 -17 50 -72 73 -79 9 -4 17 -13 17 -21 0 -17 78 -86 97 -86 8 0 11 -4 8 -10 -7 -11 104 -119 122 -120 7 0 10 -6 7 -14 -6 -15 49 -60 60 -49 3 3 6 -1 6 -10 0 -18 80 -101 108 -112 9 -4 73 -6 140 -6 75 1 129 -2 137 -9 8 -7 21 -7 37 -1 14 5 45 9 71 9 45 -1 82 16 71 33 -3 5 -27 19 -54 32 -28 13 -47 27 -43 30 3 4 12 2 20 -4 7 -6 13 -9 13 -5 0 9 -178 186 -188 186 -4 0 -12 10 -17 22 -6 12 -19 26 -29 32 -11 6 -30 22 -44 36 -23 25 -24 25 -19 3 3 -13 1 -23 -5 -23 -6 0 -8 12 -5 28 6 31 -26 74 -49 65 -9 -3 -14 2 -14 13 0 26 -59 84 -78 76 -11 -4 -14 -1 -10 10 9 21 -51 78 -81 78 -20 0 -22 2 -10 16 11 13 9 14 -14 9 -17 -5 -27 -3 -27 4 0 6 7 8 15 5 26 -10 16 11 -16 35 -17 13 -37 20 -46 17 -13 -5 -14 -4 -3 9 11 13 9 20 -10 40 -13 14 -21 27 -19 29 2 3 47 6 99 7 72 2 104 8 133 23 38 20 48 36 22 36 -8 0 -15 -4 -15 -10 0 -5 -5 -10 -11 -10 -6 0 -9 8 -7 18 4 19 48 25 61 7 4 -6 7 -2 5 10 -2 16 3 20 23 20 29 0 89 47 89 69 0 8 9 18 20 21 26 8 43 40 35 65 -4 14 -2 20 9 20 19 0 48 53 40 74 -4 9 -1 23 6 31 7 9 10 26 6 41 -5 17 -2 32 8 43 11 12 14 34 12 81 -4 83 -3 80 -22 80 -12 0 -15 6 -10 24 3 12 2 26 -2 30 -4 4 -7 11 -7 14 0 4 -9 20 -19 35 -17 24 -24 27 -64 25 -49 -3 -63 10 -37 36 22 22 35 20 35 -4 0 -13 7 -20 19 -20 11 0 26 -3 34 -6 12 -4 14 0 10 16 -3 12 -19 26 -35 32 -22 8 -26 13 -17 24 12 15 5 47 -15 64 -16 12 -69 3 -60 -11 11 -18 -13 -8 -32 13 -17 19 -17 21 -1 15 22 -8 47 1 47 18 0 17 -64 65 -87 65 -10 0 -24 9 -30 19 -12 19 -66 29 -180 33 -29 2 -53 6 -53 11 0 5 20 6 45 3 27 -5 45 -3 45 3 0 14 -62 22 -165 21 -49 0 -99 0 -110 0 -11 0 -134 0 -273 0 -140 0 -257 2 -261 5 -5 2 -10 2 -13 0z m-770 -32 c-10 -2 -26 -2 -35 0 -10 3 -2 5 17 5 19 0 27 -2 18 -5z m172 -1 c0 -4 -21 -6 -47 -4 -76 5 -83 10 -15 11 34 0 62 -2 62 -7z m40 4 c0 -3 -4 -8 -10 -11 -5 -3 -10 -1 -10 4 0 6 5 11 10 11 6 0 10 -2 10 -4z m51 -7 c-14 -6 -28 -6 -33 -1 -5 5 5 9 24 10 31 0 31 -1 9 -9z m89 7 c0 -11 -19 -15 -25 -6 -3 5 1 10 9 10 9 0 16 -2 16 -4z m30 -6 c0 -5 -2 -10 -4 -10 -3 0 -8 5 -11 10 -3 6 -1 10 4 10 6 0 11 -4 11 -10z m58 3 c-10 -2 -26 -2 -35 0 -10 3 -2 5 17 5 19 0 27 -2 18 -5z m49 1 c-3 -3 -12 -4 -19 -1 -8 3 -5 6 6 6 11 1 17 -2 13 -5z m172 2 c-2 -2 -35 -6 -74 -9 -41 -3 -60 -2 -45 3 25 8 127 13 119 6z m164 -3 c-24 -2 -62 -2 -85 0 -24 2 -5 4 42 4 47 0 66 -2 43 -4z m95 0 c-10 -2 -26 -2 -35 0 -10 3 -2 5 17 5 19 0 27 -2 18 -5z m42 -3 c0 -5 -5 -10 -11 -10 -5 0 -7 5 -4 10 3 6 8 10 11 10 2 0 4 -4 4 -10z m70 -2 c0 -4 -7 -8 -15 -8 -8 0 -15 4 -15 8 0 5 7 9 15 9 8 0 15 -4 15 -9z m90 3 c0 -4 -13 -8 -30 -9 -16 0 -30 3 -30 7 0 4 14 8 30 9 17 0 30 -3 30 -7z m30 -1 c0 -5 -4 -10 -10 -10 -5 0 -10 5 -10 10 0 6 5 10 10 10 6 0 10 -4 10 -10z m34 -6 c4 -10 1 -14 -6 -12 -15 5 -23 28 -10 28 5 0 13 -7 16 -16z m136 5 c0 -10 -116 -6 -125 3 -4 4 23 6 59 5 36 0 66 -4 66 -8z m35 1 c-3 -5 -10 -10 -16 -10 -5 0 -9 5 -9 10 0 6 7 10 16 10 8 0 12 -4 9 -10z m135 2 c0 -4 -13 -9 -30 -10 -16 -1 -30 2 -30 8 0 5 14 10 30 10 17 0 30 -4 30 -8z m-1456 -37 c-4 -8 -8 -15 -10 -15 -2 0 -4 7 -4 15 0 8 4 15 10 15 5 0 7 -7 4 -15z m106 0 c0 -8 -4 -15 -8 -15 -5 0 -9 7 -9 15 0 8 4 15 9 15 4 0 8 -7 8 -15z m140 8 c0 -5 18 -8 40 -8 22 0 40 4 40 8 0 5 5 5 10 2 22 -14 -3 -23 -60 -23 -56 1 -69 6 -53 21 9 9 23 9 23 0z m130 -8 c0 -8 -4 -15 -10 -15 -5 0 -10 7 -10 15 0 8 5 15 10 15 6 0 10 -7 10 -15z m78 2 c17 1 32 -1 32 -5 0 -10 -77 -15 -90 -7 -6 4 -8 11 -4 16 3 6 11 6 17 1 7 -5 27 -7 45 -5z m56 -2 c-4 -8 -8 -15 -10 -15 -2 0 -4 7 -4 15 0 8 4 15 10 15 5 0 7 -7 4 -15z m36 0 c0 -8 -2 -15 -4 -15 -2 0 -6 7 -10 15 -3 8 -1 15 4 15 6 0 10 -7 10 -15z m34 0 c-4 -8 -10 -15 -15 -15 -4 0 -6 7 -3 15 4 8 10 15 15 15 4 0 6 -7 3 -15z m101 6 c3 -5 1 -12 -5 -16 -5 -3 -10 1 -10 9 0 18 6 21 15 7z m145 -1 c0 -5 -4 -10 -10 -10 -5 0 -10 5 -10 10 0 6 5 10 10 10 6 0 10 -4 10 -10z m27 -12 c-3 -8 -6 -5 -6 6 -1 11 2 17 5 13 3 -3 4 -12 1 -19z m43 12 c0 -5 -7 -10 -15 -10 -8 0 -15 5 -15 10 0 6 7 10 15 10 8 0 15 -4 15 -10z m90 -4 c9 -1 21 -5 27 -9 6 -4 13 -1 16 5 2 7 8 10 12 6 4 -4 4 -11 0 -17 -8 -14 -75 -15 -75 -1 0 5 -7 7 -15 4 -10 -4 -15 0 -15 11 0 12 5 15 18 10 9 -4 24 -8 32 -9z m-910 -5 c0 -5 -13 -9 -30 -9 -16 1 -30 5 -30 10 0 4 14 8 30 8 17 0 30 -4 30 -9z m130 0 c0 -4 -16 -8 -35 -9 -19 -2 -35 1 -35 6 0 4 16 8 35 9 19 0 35 -2 35 -6z m410 5 c0 -3 -4 -8 -10 -11 -5 -3 -10 -1 -10 4 0 6 5 11 10 11 6 0 10 -2 10 -4z m40 -6 c0 -5 -7 -10 -15 -10 -8 0 -15 5 -15 10 0 6 7 10 15 10 8 0 15 -4 15 -10z m100 6 c0 -3 -4 -8 -10 -11 -5 -3 -10 -1 -10 4 0 6 5 11 10 11 6 0 10 -2 10 -4z m40 -4 c0 -5 -7 -9 -15 -9 -8 0 -15 4 -15 9 0 4 7 8 15 8 8 0 15 -4 15 -8z m130 -2 c0 -5 -4 -10 -10 -10 -5 0 -10 5 -10 10 0 6 5 10 10 10 6 0 10 -4 10 -10z m153 -7 c-3 -7 -9 -13 -14 -13 -5 0 -9 6 -9 13 0 8 6 14 14 14 8 0 12 -6 9 -14z m37 2 c0 -8 -4 -15 -10 -15 -5 0 -10 7 -10 15 0 8 5 15 10 15 6 0 10 -7 10 -15z m30 0 c0 -8 -2 -15 -4 -15 -2 0 -6 7 -10 15 -3 8 -1 15 4 15 6 0 10 -7 10 -15z m40 -6 c0 -5 -8 -9 -17 -8 -11 0 -13 3 -5 6 6 2 9 10 6 15 -4 7 -2 8 4 4 7 -4 12 -11 12 -17z m24 6 c-4 -8 -8 -15 -10 -15 -2 0 -4 7 -4 15 0 8 4 15 10 15 5 0 7 -7 4 -15z m76 -2 c0 -13 -3 -13 -15 -3 -8 7 -15 8 -15 3 0 -5 -7 -10 -15 -10 -29 0 -15 24 15 25 21 0 30 -4 30 -15z m30 8 c0 -6 -4 -13 -10 -16 -5 -3 -10 1 -10 9 0 9 5 16 10 16 6 0 10 -4 10 -9z m40 0 c0 -12 -20 -25 -27 -18 -7 7 6 27 18 27 5 0 9 -4 9 -9z m30 -6 c0 -8 -4 -15 -10 -15 -5 0 -10 7 -10 15 0 8 5 15 10 15 6 0 10 -7 10 -15z m70 1 c0 -7 -13 -12 -30 -12 -27 0 -37 6 -26 17 10 10 56 6 56 -5z m22 -8 c-7 -7 -12 -8 -12 -2 0 6 3 14 7 17 3 4 9 5 12 2 2 -3 -1 -11 -7 -17z m77 6 c12 -11 -11 -15 -24 -4 -10 8 -15 9 -15 1 0 -6 -4 -11 -10 -11 -5 0 -7 7 -4 15 6 14 37 13 53 -1z m41 -5 c0 -5 -7 -9 -15 -9 -15 0 -20 12 -9 23 8 8 24 -1 24 -14z m30 6 c0 -8 -4 -15 -10 -15 -5 0 -10 7 -10 15 0 8 5 15 10 15 6 0 10 -7 10 -15z m60 -5 c11 -7 7 -10 -17 -10 -18 0 -33 5 -33 10 0 13 30 13 50 0z m-1680 -30 c0 -5 -2 -10 -4 -10 -3 0 -8 5 -11 10 -3 6 -1 10 4 10 6 0 11 -4 11 -10z m44 -12 c10 16 23 15 23 -2 0 -8 -9 -14 -21 -13 -24 1 -38 16 -29 31 4 5 9 1 13 -9 5 -13 9 -15 14 -7z m91 -38 c0 -33 -3 -60 -6 -60 -4 0 -7 27 -7 60 0 33 3 60 7 60 3 0 6 -27 6 -60z m38 47 c3 -8 1 -20 -4 -28 -6 -10 -9 -7 -9 14 0 29 5 35 13 14z m33 -17 c1 -16 -3 -27 -7 -24 -11 6 -12 54 -1 54 4 0 7 -13 8 -30z m44 4 c0 -8 -7 -14 -15 -14 -15 0 -21 21 -9 33 10 9 24 -2 24 -19z m25 1 c0 -14 -3 -25 -7 -25 -5 0 -8 11 -8 25 0 14 3 25 8 25 4 0 7 -11 7 -25z m45 15 c0 -5 -7 -10 -15 -10 -8 0 -15 5 -15 10 0 6 7 10 15 10 8 0 15 -4 15 -10z m64 -5 c-4 -8 -1 -15 5 -15 6 0 11 7 11 15 0 8 4 15 9 15 6 0 9 -9 8 -20 -1 -15 -8 -20 -29 -20 -21 0 -28 5 -28 20 0 11 7 20 15 20 9 0 12 -6 9 -15z m61 -5 c-2 -31 -15 -37 -15 -7 0 15 4 27 8 27 5 0 8 -9 7 -20z m115 4 c0 -8 -4 -12 -10 -9 -5 3 -10 0 -10 -9 0 -8 4 -16 10 -18 6 -2 6 -9 0 -18 -7 -12 -12 -12 -22 -2 -7 7 -8 12 -2 12 6 0 9 13 6 30 -3 23 0 30 12 30 9 0 16 -7 16 -16z m42 -1 c7 -32 -4 -63 -21 -62 -10 0 -11 2 -3 6 6 2 12 17 12 33 0 16 -6 31 -12 33 -8 4 -7 6 4 6 9 1 18 -7 20 -16z m236 7 c7 0 12 -12 11 -27 0 -25 -1 -26 -9 -8 -7 17 -9 17 -9 3 -1 -28 -21 -21 -21 8 0 14 -4 23 -10 19 -5 -3 -10 -15 -10 -26 0 -27 -17 -24 -22 6 -6 27 6 36 37 30 11 -3 26 -5 33 -5z m49 -20 c0 -16 -4 -30 -9 -30 -10 0 -11 44 -1 53 9 10 10 10 10 -23z m54 7 c-17 -17 -13 -27 10 -27 15 0 19 5 17 22 -2 11 3 23 10 25 7 3 10 -1 6 -11 -3 -9 -1 -23 6 -31 11 -13 7 -15 -29 -15 -28 0 -44 5 -47 15 -9 23 3 45 21 39 12 -5 13 -10 6 -17z m192 -23 c-5 -15 -13 -29 -19 -31 -13 -4 -14 61 0 69 18 12 29 -8 19 -38z m287 21 c0 -15 6 -25 15 -25 9 0 14 8 12 21 -1 12 4 24 12 27 8 2 11 1 9 -4 -3 -5 -2 -18 3 -29 6 -16 8 -17 8 -3 1 10 10 22 21 28 18 10 20 8 20 -18 0 -29 0 -29 -62 -31 l-63 -1 0 30 c0 17 5 30 13 30 6 0 12 -11 12 -25z m188 -2 c-9 -11 -9 -16 3 -24 11 -7 11 -9 -4 -9 -10 0 -20 7 -23 15 -9 23 3 45 21 39 12 -5 13 -9 3 -21z m-1498 0 c0 -15 -2 -16 -10 -3 -7 11 -10 11 -10 2 0 -7 -5 -10 -10 -7 -13 8 -3 25 16 25 8 0 14 -8 14 -17z m357 -20 c-3 -10 -5 -4 -5 12 0 17 2 24 5 18 2 -7 2 -21 0 -30z m40 12 c-15 -32 -27 -32 -27 0 0 18 5 25 19 25 17 0 18 -3 8 -25z m143 21 c0 -3 -4 -8 -10 -11 -5 -3 -10 -1 -10 4 0 6 5 11 10 11 6 0 10 -2 10 -4z m58 -24 c3 -17 -2 -22 -17 -22 -16 0 -21 6 -21 26 0 33 33 30 38 -4z m42 -3 c0 -10 -4 -19 -9 -19 -12 0 -23 29 -15 41 8 14 24 0 24 -22z m290 10 c0 -18 -21 -49 -33 -49 -2 0 -4 16 -5 35 -1 29 2 35 18 35 14 0 20 -7 20 -21z m50 -4 c0 -18 -5 -25 -20 -25 -18 0 -21 13 -11 48 1 1 8 2 16 2 9 0 15 -9 15 -25z m82 0 c3 -16 1 -25 -7 -25 -8 0 -10 9 -7 25 2 14 6 25 7 25 1 0 5 -11 7 -25z m58 15 c0 -5 -5 -10 -11 -10 -6 0 -9 -7 -5 -15 3 -8 1 -15 -4 -15 -6 0 -10 11 -10 25 0 16 6 25 15 25 8 0 15 -4 15 -10z m50 -15 c0 -25 -23 -35 -35 -15 -10 16 2 40 20 40 9 0 15 -9 15 -25z m43 17 c4 9 6 9 6 -2 0 -8 -4 -22 -9 -30 -9 -13 -11 -13 -20 0 -16 24 -13 45 4 31 11 -9 15 -9 19 1z m55 -20 c3 -17 -2 -22 -17 -22 -14 0 -21 6 -21 18 0 38 33 41 38 4z m192 3 c0 -18 -5 -25 -20 -25 -20 0 -28 28 -13 43 15 16 33 6 33 -18z m139 9 c2 -2 -6 -4 -18 -4 -12 0 -24 -7 -27 -15 -10 -25 -34 -17 -34 10 0 24 2 26 38 19 20 -4 39 -8 41 -10z m39 -12 c5 -31 -15 -27 -21 3 -3 16 0 24 7 22 6 -2 12 -13 14 -25z m-1098 -11 c0 -6 -4 -13 -10 -16 -5 -3 -10 1 -10 9 0 9 5 16 10 16 6 0 10 -4 10 -9z m1053 2 c-7 -2 -19 -2 -25 0 -7 3 -2 5 12 5 14 0 19 -2 13 -5z m82 -3 c3 -5 1 -10 -4 -10 -6 0 -11 5 -11 10 0 6 2 10 4 10 3 0 8 -4 11 -10z m-1680 -40 c2 -26 -7 -25 -31 2 -10 12 -14 18 -7 15 6 -4 15 -2 18 4 9 14 18 4 20 -21z m68 18 c5 -16 -3 -48 -12 -48 -3 0 -6 14 -6 30 0 30 10 40 18 18z m95 0 c9 3 13 -2 10 -14 -2 -10 -14 -19 -30 -21 -24 -3 -28 0 -28 22 0 21 3 24 18 17 9 -5 23 -7 30 -4z m147 -18 c0 -16 -3 -30 -7 -30 -5 0 -8 14 -8 30 0 17 3 30 8 30 4 0 7 -13 7 -30z m-212 -5 c-7 -21 -12 -19 -10 4 0 11 5 18 9 15 4 -3 5 -11 1 -19z m142 16 c4 -7 -46 -41 -60 -41 -1 0 0 11 3 25 3 18 11 25 28 25 12 0 25 -4 29 -9z m43 -14 c2 -10 -3 -17 -12 -17 -10 0 -16 9 -16 21 0 24 23 21 28 -4z m59 3 c1 -11 -2 -20 -8 -20 -5 0 -9 9 -9 20 0 11 4 20 8 20 4 0 8 -9 9 -20z m969 -22 c-9 -12 -16 -20 -16 -16 0 3 -3 13 -6 21 -3 10 1 17 13 19 26 6 27 2 9 -24z m-949 -25 c-3 -10 -5 -2 -5 17 0 19 2 27 5 18 2 -10 2 -26 0 -35z m53 36 c0 -5 -6 -7 -12 -3 -10 6 -10 4 0 -7 18 -20 15 -39 -8 -39 -11 0 -20 5 -20 11 0 5 5 7 10 4 6 -3 10 -1 10 4 0 6 -4 11 -10 11 -5 0 -10 7 -10 15 0 8 9 15 20 15 11 0 20 -5 20 -11z m128 1 c6 0 12 -12 12 -26 0 -33 -33 -30 -38 4 -4 26 -22 20 -22 -9 0 -10 -4 -19 -10 -19 -5 0 -10 9 -10 19 0 15 -5 18 -22 13 -21 -5 -21 -6 -2 -13 18 -7 17 -8 -3 -8 -21 -1 -35 28 -15 30 22 2 45 8 50 14 4 3 16 4 27 1 11 -3 26 -6 33 -6z m147 -23 c1 -16 -5 -27 -12 -27 -8 0 -13 12 -13 31 0 20 4 29 13 27 6 -3 12 -17 12 -31z m47 3 c4 -25 1 -30 -16 -30 -16 0 -18 2 -7 9 7 5 10 14 7 20 -6 10 0 31 8 31 2 0 6 -13 8 -30z m143 -10 c0 -22 -3 -40 -7 -40 -11 0 -20 39 -13 60 10 33 21 23 20 -20z m50 20 c7 -21 -2 -60 -13 -60 -4 0 -7 18 -7 40 0 43 10 53 20 20z m46 3 c-5 -10 -5 -26 0 -40 5 -15 5 -23 -2 -23 -15 0 -28 43 -17 63 5 9 13 17 19 17 6 0 7 -6 0 -17z m144 -16 c1 -16 -5 -27 -12 -27 -8 0 -13 12 -13 31 0 20 4 29 13 27 6 -3 12 -17 12 -31z m285 18 c-7 -9 -10 -25 -6 -41 5 -17 3 -23 -4 -19 -11 7 -14 58 -3 68 13 14 25 7 13 -8z m48 -12 c-9 -11 -9 -17 3 -24 11 -8 10 -9 -5 -7 -11 2 -20 12 -22 22 -4 27 4 36 22 29 11 -4 12 -8 2 -20z m62 -13 c0 -25 -20 -27 -21 -2 0 14 -2 14 -9 -3 -7 -17 -9 -15 -9 13 -1 30 1 32 19 22 11 -6 20 -20 20 -30z m35 19 c-5 -14 -2 -25 6 -30 11 -7 9 -9 -6 -9 -17 0 -21 6 -19 28 2 33 1 32 15 32 6 0 8 -9 4 -21z m98 -30 c-9 -34 -18 -28 -18 12 0 33 2 37 11 24 7 -9 10 -25 7 -36z m-1046 11 c1 -15 0 -18 -3 -7 -3 9 -10 17 -16 17 -5 0 -8 -7 -4 -15 3 -8 1 -15 -4 -15 -6 0 -10 12 -10 26 0 35 34 29 37 -6z m48 20 c3 -5 -1 -10 -9 -10 -9 0 -16 -4 -16 -10 0 -5 7 -6 17 -3 11 4 14 3 9 -5 -13 -22 -36 -13 -36 13 0 25 23 35 35 15z m143 -18 c2 -14 -2 -22 -12 -22 -19 0 -29 17 -22 36 8 22 30 12 34 -14z m50 0 c2 -12 -1 -22 -7 -22 -6 0 -11 8 -12 18 0 14 -2 14 -9 -3 -8 -18 -9 -17 -9 8 -1 22 3 28 17 25 9 -2 18 -13 20 -26z m192 18 c0 -5 -4 -10 -10 -10 -5 0 -10 -7 -10 -15 0 -8 -4 -15 -10 -15 -5 0 -10 11 -10 25 0 18 5 25 20 25 11 0 20 -4 20 -10z m48 -8 c2 -7 -5 -12 -15 -12 -15 0 -16 -2 -3 -10 13 -8 12 -10 -2 -10 -18 0 -25 30 -11 44 9 9 26 2 31 -12z m73 -4 c1 -22 1 -22 9 2 l8 25 1 -28 c1 -22 -3 -28 -16 -25 -19 3 -32 48 -14 48 6 0 11 -10 12 -22z m69 12 c0 -5 -4 -10 -10 -10 -5 0 -10 -7 -10 -15 0 -8 -4 -15 -8 -15 -7 0 -8 31 -3 48 3 7 31 0 31 -8z m48 -18 c2 -12 -1 -22 -7 -22 -6 0 -11 8 -12 18 0 14 -2 14 -9 -3 -8 -18 -9 -17 -9 8 -1 22 3 28 17 25 9 -2 18 -13 20 -26z m94 3 c5 -21 1 -25 -19 -25 -19 0 -24 4 -19 16 3 9 6 20 6 25 0 21 28 7 32 -16z m238 0 c0 -17 -5 -25 -17 -25 -15 0 -16 2 -3 10 10 6 11 10 3 10 -7 0 -13 7 -13 15 0 8 7 15 15 15 9 0 15 -9 15 -25z m140 10 c14 -16 6 -35 -16 -35 -8 0 -14 10 -14 25 0 28 12 32 30 10z m-46 -20 c-4 -8 -10 -15 -14 -15 -4 0 -10 7 -14 15 -4 10 1 15 14 15 13 0 18 -5 14 -15z m-1664 -5 c0 -5 -2 -10 -4 -10 -3 0 -8 5 -11 10 -3 6 -1 10 4 10 6 0 11 -4 11 -10z m30 -4 c0 -8 3 -23 7 -33 6 -16 5 -16 -10 -4 -18 15 -23 51 -7 51 6 0 10 -6 10 -14z m40 -6 c0 -11 -7 -20 -15 -20 -15 0 -21 21 -8 33 12 13 23 7 23 -13z m30 -10 c0 -16 -4 -30 -9 -30 -4 0 -8 13 -7 30 1 39 16 39 16 0z m140 20 c0 -5 -7 -10 -15 -10 -8 0 -15 -4 -15 -10 0 -5 -15 -9 -32 -7 -46 4 -41 22 5 24 21 0 41 4 44 7 9 9 13 7 13 -4z m30 -10 c-9 -6 -9 -9 1 -13 10 -4 9 -6 -3 -6 -10 -1 -18 5 -18 12 0 18 11 28 22 20 6 -3 5 -9 -2 -13z m1010 -5 c0 -9 -9 -15 -21 -15 -18 0 -19 2 -9 15 7 8 16 15 21 15 5 0 9 -7 9 -15z m-1150 -15 c0 -5 -5 -10 -11 -10 -5 0 -7 5 -4 10 3 6 8 10 11 10 2 0 4 -4 4 -10z m1531 -17 c-22 -15 -28 -38 -11 -46 6 -3 5 -4 -2 -3 -7 2 -12 15 -11 30 1 14 -4 26 -10 27 -7 1 -1 4 13 8 34 11 46 2 21 -16z m-1190 8 c-7 -5 -11 -13 -8 -18 3 -5 0 -10 -8 -10 -10 0 -11 5 -4 19 5 10 15 18 22 18 8 0 8 -3 -2 -9z m-109 -36 c-5 -16 -11 -25 -14 -20 -6 11 10 61 17 53 2 -2 1 -17 -3 -33z m68 0 c0 -9 -10 -15 -24 -15 -19 0 -22 4 -18 25 3 21 7 23 23 14 11 -5 19 -16 19 -24z m129 -3 c0 -24 -1 -25 -9 -7 -12 28 -12 47 0 40 6 -3 10 -18 9 -33z m51 18 c-6 -11 -8 -20 -5 -20 4 0 3 -5 -1 -11 -5 -8 -9 -8 -14 1 -11 18 0 50 17 50 11 0 11 -4 3 -20z m138 -7 c-9 -11 -9 -16 3 -24 12 -7 11 -9 -2 -9 -10 0 -19 10 -21 25 -6 29 -1 36 18 28 12 -4 12 -8 2 -20z m252 23 c0 -2 -6 -16 -14 -30 -13 -26 -14 -26 -19 -5 -3 13 -4 26 -1 31 5 8 34 12 34 4z m190 -32 c0 -15 -6 -24 -15 -24 -18 0 -30 24 -21 45 8 22 36 6 36 -21z m40 6 c0 -20 -5 -30 -15 -30 -15 0 -21 40 -8 53 14 15 23 6 23 -23z m136 -4 c0 -19 -4 -32 -8 -30 -14 9 -8 64 7 64 0 0 1 -15 1 -34z m54 -6 c0 -16 -3 -31 -8 -34 -4 -2 -7 13 -7 34 0 21 3 36 7 34 5 -3 8 -18 8 -34z m66 32 c6 -4 14 -14 17 -22 4 -12 6 -12 6 2 1 27 55 19 59 -10 3 -17 -2 -22 -18 -22 -16 0 -20 4 -16 15 3 8 1 15 -3 15 -5 0 -11 -7 -15 -15 -8 -23 -23 -18 -30 10 -4 14 -11 23 -16 20 -14 -9 -12 -52 3 -58 7 -4 6 -6 -4 -6 -17 -1 -28 30 -21 62 4 18 19 22 38 9z m134 -12 c0 -5 -6 -11 -12 -14 -14 -5 12 -26 47 -38 19 -6 19 -6 -2 -7 -12 -1 -25 4 -28 9 -3 6 -14 10 -24 10 -14 0 -17 6 -13 29 3 20 8 28 18 24 8 -3 14 -9 14 -13z m-1512 -5 c41 2 43 -21 2 -27 -30 -5 -68 21 -53 35 4 4 9 4 12 -1 3 -4 21 -7 39 -7z m61 -18 c0 -21 -1 -21 -9 -2 -12 28 -12 37 0 30 6 -3 10 -16 9 -28z m70 16 c6 -10 11 -12 11 -5 0 6 7 12 16 12 9 0 14 -7 12 -16 -2 -8 -6 -15 -10 -15 -5 1 -19 1 -33 1 -18 0 -25 5 -25 20 0 25 16 26 29 3z m71 -2 c0 -11 -4 -23 -10 -26 -6 -4 -10 5 -10 19 0 14 5 26 10 26 6 0 10 -9 10 -19z m17 -18 c-3 -10 -5 -4 -5 12 0 17 2 24 5 18 2 -7 2 -21 0 -30z m193 27 c0 -5 -6 -10 -12 -11 -10 0 -10 -2 0 -6 13 -5 17 -23 5 -23 -19 1 -35 19 -30 34 7 17 37 22 37 6z m140 2 c0 -5 -7 -17 -15 -28 -14 -18 -14 -18 -15 9 0 17 5 27 15 27 8 0 15 -4 15 -8z m47 -23 c1 -13 0 -19 -3 -12 -3 7 -12 9 -20 6 -8 -3 -14 1 -14 9 0 37 34 34 37 -3z m82 9 c1 12 6 22 12 22 18 0 5 -45 -13 -48 -14 -3 -18 3 -17 25 l1 28 8 -25 c8 -24 8 -24 9 -2z m61 14 c0 -5 -7 -17 -15 -28 -14 -18 -14 -18 -15 9 0 17 5 27 15 27 8 0 15 -4 15 -8z m49 -19 c0 -25 -1 -26 -9 -8 -8 19 -9 19 -9 1 -1 -15 -4 -17 -12 -9 -15 15 -4 43 16 43 10 0 15 -9 14 -27z m130 5 c1 12 6 22 12 22 18 0 5 -45 -13 -48 -14 -3 -18 3 -17 25 l1 28 8 -25 c8 -24 8 -24 9 -2z m60 -5 c-1 -22 -2 -24 -7 -8 -5 20 -5 20 -13 0 -7 -17 -8 -16 -8 8 -1 18 4 27 14 27 10 0 15 -9 14 -27z m49 -1 c2 -14 -2 -22 -12 -22 -19 0 -29 17 -22 36 8 22 30 12 34 -14z m142 11 c1 -17 1 -17 11 0 16 27 39 21 38 -10 0 -25 -1 -26 -9 -8 -5 11 -9 14 -9 8 -1 -7 -10 -13 -20 -13 -11 0 -22 6 -24 13 -3 6 -6 3 -6 -8 -1 -16 -3 -17 -10 -6 -5 8 -7 20 -4 28 7 19 33 16 33 -4z m483 0 c-7 -2 -19 -2 -25 0 -7 3 -2 5 12 5 14 0 19 -2 13 -5z m-1298 -23 c-3 -5 -10 -10 -16 -10 -5 0 -9 5 -9 10 0 6 7 10 16 10 8 0 12 -4 9 -10z m1329 -59 c-7 -7 -44 31 -38 41 3 4 14 -2 24 -14 10 -13 16 -25 14 -27z m-174 -4 c0 -13 -5 -28 -12 -35 -9 -9 -9 -12 1 -12 10 0 11 -3 2 -13 -6 -8 -8 -17 -4 -20 3 -4 2 -7 -4 -7 -6 0 -16 7 -24 16 -10 12 -10 17 -1 23 7 4 10 15 6 24 -8 23 2 47 21 47 9 0 15 -9 15 -23z m93 4 c5 -19 -9 -41 -25 -41 -4 0 -8 5 -8 10 0 6 3 9 8 8 4 -2 8 2 9 7 0 6 -3 9 -8 8 -5 -2 -9 4 -9 12 0 22 27 18 33 -4z m42 -1 c7 -21 -2 -60 -13 -60 -4 0 -7 18 -8 40 0 43 11 53 21 20z m-285 -2 c0 -9 4 -8 10 2 7 11 10 11 10 2 0 -9 5 -10 18 -4 17 10 49 8 60 -2 3 -3 -5 -6 -17 -6 -12 0 -24 -7 -27 -15 -7 -18 -44 -20 -44 -3 0 6 -3 9 -6 5 -6 -6 -34 16 -34 27 0 3 7 6 15 6 8 0 15 -6 15 -12z m198 -6 c2 -7 -5 -12 -15 -12 -15 0 -16 -2 -3 -10 13 -8 12 -10 -2 -10 -18 0 -25 30 -11 44 9 9 26 2 31 -12z m131 -28 c-17 -21 -31 -17 -19 6 6 11 15 18 21 14 6 -4 6 -11 -2 -20z m-234 6 c-3 -5 -12 -7 -20 -3 -21 7 -19 13 6 13 11 0 18 -4 14 -10z m154 -29 c2 -1 -2 -8 -9 -16 -10 -12 -16 -13 -26 -4 -8 6 -12 15 -9 19 4 7 13 7 44 1z m-206 -33 c9 -31 2 -33 -11 -3 -6 14 -8 25 -3 25 5 0 11 -10 14 -22z m47 -18 c0 -16 -3 -31 -8 -34 -4 -2 -7 13 -7 34 0 21 3 36 7 34 5 -3 8 -18 8 -34z m108 2 c-2 -9 -11 -18 -21 -20 -13 -3 -17 3 -17 28 0 28 2 30 21 20 11 -6 19 -19 17 -28z m92 18 c0 -5 -4 -10 -10 -10 -5 0 -10 -5 -10 -11 0 -5 5 -7 10 -4 6 3 10 1 10 -4 0 -14 -27 -14 -35 -1 -10 16 2 40 20 40 8 0 15 -4 15 -10z m50 -15 c0 -18 -5 -25 -20 -25 -20 0 -28 28 -13 43 15 16 33 6 33 -18z m17 -12 c-3 -10 -5 -4 -5 12 0 17 2 24 5 18 2 -7 2 -21 0 -30z m-231 -20 c-10 -10 -19 5 -10 18 6 11 8 11 12 0 2 -7 1 -15 -2 -18z m104 17 c0 -5 -5 -10 -11 -10 -5 0 -7 5 -4 10 3 6 8 10 11 10 2 0 4 -4 4 -10z m-130 -55 c0 -8 -5 -15 -11 -15 -6 0 -9 -7 -5 -15 3 -8 2 -15 -3 -15 -11 0 -22 40 -15 52 9 14 34 9 34 -7z m35 -25 c0 -36 -1 -39 -12 -23 -8 9 -11 24 -8 31 3 8 5 18 5 23 0 5 3 9 8 9 4 0 7 -18 7 -40z m92 8 c-3 -7 -5 -2 -5 12 0 14 2 19 5 13 2 -7 2 -19 0 -25z m130 -15 c-3 -10 -5 -2 -5 17 0 19 2 27 5 18 2 -10 2 -26 0 -35z m-162 27 c3 -5 -1 -10 -9 -10 -9 0 -16 -4 -16 -10 0 -5 7 -6 17 -3 11 4 14 3 9 -5 -17 -27 -51 -8 -40 22 7 18 30 21 39 6z m88 -7 c-7 -2 -19 -2 -25 0 -7 3 -2 5 12 5 14 0 19 -2 13 -5z m50 0 c-7 -2 -19 -2 -25 0 -7 3 -2 5 12 5 14 0 19 -2 13 -5z m-50 -20 c-7 -2 -19 -2 -25 0 -7 3 -2 5 12 5 14 0 19 -2 13 -5z m50 0 c-7 -2 -19 -2 -25 0 -7 3 -2 5 12 5 14 0 19 -2 13 -5z m-188 -73 c0 -16 -6 -26 -17 -28 -14 -3 -18 3 -18 28 0 25 4 31 18 28 11 -2 17 -12 17 -28z m55 20 c0 -5 -4 -10 -10 -10 -5 0 -10 -9 -10 -20 0 -11 -4 -20 -10 -20 -11 0 -14 43 -3 53 10 11 33 8 33 -3z m30 -10 c-8 -14 -8 -26 1 -41 9 -17 8 -20 -3 -17 -24 8 -23 78 2 78 8 0 8 -6 0 -20z m52 2 c-16 -5 -15 -29 1 -35 7 -4 6 -6 -4 -6 -9 -1 -19 9 -22 21 -8 28 -1 39 20 31 11 -4 13 -8 5 -11z m58 -22 c0 -25 -20 -27 -21 -2 0 14 -2 14 -9 -3 -7 -17 -9 -15 -9 13 -1 30 1 32 19 22 11 -6 20 -20 20 -30z m-290 5 c0 -15 -6 -25 -14 -25 -19 0 -28 14 -20 34 10 25 34 19 34 -9z m48 -1 c0 -15 -6 -22 -18 -21 -11 1 -17 9 -17 22 0 13 6 21 17 21 11 0 18 -8 18 -22z m-101 -84 c-6 -16 -14 -30 -18 -30 -12 0 -16 49 -5 54 29 12 34 6 23 -24z m101 -8 c-2 -9 -11 -18 -21 -20 -13 -3 -17 3 -17 28 0 28 2 30 21 20 11 -6 19 -19 17 -28z m42 28 c0 -5 -7 -10 -16 -10 -8 0 -12 5 -9 10 3 6 10 10 16 10 5 0 9 -4 9 -10z m92 -20 c4 -25 1 -30 -16 -30 -16 0 -18 3 -7 9 10 7 11 13 2 30 -9 17 -9 21 3 21 8 0 16 -13 18 -30z m50 0 c3 -23 1 -30 -12 -30 -11 0 -15 8 -14 28 3 34 2 32 13 32 5 0 11 -13 13 -30z m-235 -14 c-4 -9 -11 -16 -17 -16 -17 0 -24 31 -9 41 18 11 34 -5 26 -25z m143 9 c0 -16 -6 -25 -15 -25 -9 0 -15 9 -15 25 0 16 6 25 15 25 9 0 15 -9 15 -25z m140 15 c0 -5 -5 -10 -11 -10 -5 0 -8 -4 -4 -9 3 -5 1 -12 -5 -16 -6 -4 -10 5 -10 19 0 16 6 26 15 26 8 0 15 -4 15 -10z m-394 -38 c-15 -15 -16 -14 -16 6 0 13 4 20 10 17 6 -3 10 0 11 7 0 10 2 10 6 0 3 -8 -2 -21 -11 -30z m-33 -2 c-3 -11 -12 -20 -20 -20 -11 0 -11 4 -3 20 6 11 15 20 19 20 5 0 7 -9 4 -20z m232 10 c3 -5 1 -10 -4 -10 -6 0 -11 5 -11 10 0 6 2 10 4 10 3 0 8 -4 11 -10z m-805 -21 c0 -6 -4 -7 -10 -4 -5 3 -10 11 -10 16 0 6 5 7 10 4 6 -3 10 -11 10 -16z m44 6 c-4 -8 -10 -15 -15 -15 -4 0 -6 7 -3 15 4 8 10 15 15 15 4 0 6 -7 3 -15z m54 -4 c3 -8 -1 -12 -9 -9 -7 2 -15 10 -17 17 -3 8 1 12 9 9 7 -2 15 -10 17 -17z m235 12 c-7 -2 -19 -2 -25 0 -7 3 -2 5 12 5 14 0 19 -2 13 -5z m37 -3 c0 -5 -4 -10 -10 -10 -5 0 -10 5 -10 10 0 6 5 10 10 10 6 0 10 -4 10 -10z m150 -5 c10 -12 10 -15 -4 -15 -9 0 -16 7 -16 15 0 8 2 15 4 15 2 0 9 -7 16 -15z m310 -15 c0 -5 -2 -10 -4 -10 -3 0 -8 5 -11 10 -3 6 -1 10 4 10 6 0 11 -4 11 -10z m-1023 -24 c-3 -8 -2 -17 4 -20 5 -2 4 -3 -3 -2 -17 3 -23 36 -8 36 7 0 10 -6 7 -14z m50 -29 l-11 -32 -12 30 c-13 31 -3 48 22 38 10 -3 10 -12 1 -36z m53 8 c0 -28 -14 -40 -28 -22 -12 15 3 61 18 52 5 -3 10 -17 10 -30z m90 13 c0 -5 -4 -6 -10 -3 -5 3 -10 -1 -10 -10 0 -9 4 -13 10 -10 5 3 7 0 4 -9 -4 -11 4 -18 28 -25 31 -10 30 -10 -12 -5 -25 4 -45 7 -46 8 -1 0 1 18 3 38 4 26 9 35 19 31 8 -3 14 -9 14 -15z m44 9 c11 -8 15 -19 10 -30 -10 -27 -31 -20 -36 13 -5 33 0 36 26 17z m104 -14 c-3 -30 -25 -42 -34 -19 -9 22 2 46 21 46 12 0 15 -8 13 -27z m184 9 c-7 -2 -12 -11 -12 -20 0 -15 2 -15 10 -2 8 13 10 12 10 -2 0 -27 -27 -21 -32 7 -6 29 -1 36 20 27 10 -4 12 -7 4 -10z m58 -22 c0 -25 -20 -27 -21 -2 0 14 -2 14 -9 -3 -7 -17 -9 -15 -9 13 -1 30 1 32 19 22 11 -6 20 -20 20 -30z m51 -7 c1 4 2 13 3 19 0 7 9 14 19 16 12 3 17 -3 17 -21 0 -22 -4 -25 -40 -25 -38 -1 -40 1 -36 26 2 15 5 29 6 32 1 3 8 -8 15 -25 8 -16 15 -27 16 -22z m75 12 c1 -14 -2 -25 -7 -25 -5 0 -9 14 -9 32 0 36 12 31 16 -7z m56 5 c3 -23 1 -30 -11 -30 -11 0 -16 10 -16 30 -1 17 4 30 11 30 6 0 14 -13 16 -30z m146 -16 c-4 -35 -30 -39 -35 -5 -4 28 16 56 29 43 5 -5 8 -22 6 -38z m44 28 c-16 -5 -15 -29 1 -36 6 -3 3 -5 -7 -3 -11 1 -20 11 -22 21 -4 27 4 36 23 29 11 -4 13 -8 5 -11z m58 -22 c0 -28 -20 -25 -21 3 -1 21 -1 21 -9 -3 -8 -24 -8 -23 -9 8 -1 30 1 32 19 22 11 -6 20 -20 20 -30z m-870 15 c-6 -8 -9 -19 -5 -25 3 -5 2 -10 -3 -10 -5 0 -12 11 -14 25 -4 20 -1 25 15 25 16 0 17 -3 7 -15z m145 -10 c0 -10 -6 -20 -12 -22 -8 -3 -13 5 -13 22 0 17 5 25 13 23 6 -3 12 -13 12 -23z m97 0 c3 -13 1 -22 -3 -19 -5 3 -9 0 -9 -5 0 -6 -4 -11 -10 -11 -11 0 -14 43 -3 53 12 13 21 7 25 -18z m48 14 c0 -5 -4 -7 -10 -4 -5 3 -10 -1 -10 -9 0 -18 26 -11 34 10 10 27 36 16 36 -15 0 -30 -14 -49 -24 -32 -4 5 0 12 6 15 7 3 -3 4 -24 1 -37 -6 -50 5 -40 33 5 15 32 16 32 1z m380 -14 c0 -15 -6 -25 -14 -25 -16 0 -25 19 -18 38 8 22 32 13 32 -13z m49 -2 l-1 -28 -8 25 c-8 24 -8 24 -9 3 -1 -31 -21 -29 -21 2 0 18 5 25 20 25 15 0 20 -6 19 -27z m181 17 c0 -5 -4 -10 -10 -10 -5 0 -10 5 -10 10 0 6 5 10 10 10 6 0 10 -4 10 -10z m60 0 c0 -5 -8 -11 -17 -11 -17 -1 -17 -2 0 -6 21 -5 23 -23 3 -23 -19 0 -29 17 -22 35 6 17 36 21 36 5z m35 -10 c0 -7 -5 -15 -10 -17 -6 -2 -11 6 -11 17 0 11 5 19 11 17 5 -2 10 -10 10 -17z m-104 -43 c-8 -8 -11 -7 -11 4 0 20 13 34 18 19 3 -7 -1 -17 -7 -23z m-185 -15 c-10 -2 -22 0 -28 6 -6 6 0 7 19 4 21 -5 23 -7 9 -10z m-753 -27 c4 -25 4 -25 -13 -8 -17 18 -17 33 -1 33 5 0 11 -11 14 -25z m197 -5 c0 -20 -5 -30 -15 -30 -24 0 -31 31 -10 46 25 18 25 18 25 -16z m42 15 c4 -5 7 -17 7 -25 0 -10 -3 -9 -10 5 -7 16 -8 13 -4 -13 2 -18 1 -31 -4 -28 -13 8 -19 75 -6 73 5 -1 13 -6 17 -12z m94 -9 c6 -26 -1 -46 -17 -46 -11 0 -7 22 6 32 6 5 6 8 -1 8 -6 0 -11 7 -11 15 0 24 16 17 23 -9z m50 -16 c0 -32 -2 -37 -13 -29 -20 17 -16 69 6 69 3 0 6 -18 7 -40z m44 26 c0 -8 3 -21 6 -30 4 -11 0 -16 -14 -16 -17 0 -20 5 -17 28 2 15 4 28 4 30 3 9 21 -1 21 -12z m60 4 c0 -5 -4 -10 -9 -10 -5 0 -11 -10 -14 -22 -3 -20 -4 -21 -11 -5 -5 9 -6 24 -2 32 6 17 36 21 36 5z m35 -25 c1 -35 -8 -45 -20 -24 -8 12 2 59 13 59 4 0 7 -16 7 -35z m101 24 c4 -7 -4 -20 -17 -30 -40 -30 -77 -21 -63 15 9 24 32 19 37 -6 4 -20 4 -19 6 5 1 28 23 37 37 16z m46 -19 c3 -23 1 -30 -12 -30 -11 0 -15 8 -14 28 3 34 2 32 13 32 5 0 11 -13 13 -30z m188 -5 c0 -38 -16 -37 -17 1 -1 18 3 31 8 28 5 -3 9 -16 9 -29z m130 25 c0 -5 -5 -10 -11 -10 -5 0 -7 5 -4 10 3 6 8 10 11 10 2 0 4 -4 4 -10z m-932 -22 c-2 -13 -10 -23 -18 -23 -8 0 -16 10 -18 23 -3 17 2 22 18 22 16 0 21 -5 18 -22z m52 -3 c0 -31 -20 -33 -21 -2 -1 21 -1 21 -9 -3 l-8 -25 -1 28 c-1 21 4 27 19 27 15 0 20 -7 20 -25z m40 0 c0 -16 -6 -25 -15 -25 -9 0 -15 9 -15 25 0 16 6 25 15 25 9 0 15 -9 15 -25z m148 -3 c3 -17 -2 -22 -17 -22 -16 0 -21 6 -21 26 0 33 33 30 38 -4z m429 12 c3 -8 1 -20 -6 -27 -8 -8 -11 -5 -12 14 l-1 24 -8 -25 -8 -25 -1 28 c-1 30 25 39 36 11z m39 4 c4 -7 3 -8 -4 -4 -7 4 -12 1 -12 -9 0 -10 5 -13 13 -9 8 5 8 2 -2 -9 -20 -25 -28 -21 -23 13 4 31 16 38 28 18z m52 -20 c-2 -21 -8 -33 -17 -33 -9 0 -16 13 -18 33 -4 27 -1 32 17 32 18 0 21 -5 18 -32z m84 20 c-8 -8 -9 -15 -1 -25 9 -10 8 -13 -5 -13 -10 0 -16 9 -16 25 0 17 6 25 17 25 13 0 14 -3 5 -12z m58 -7 c0 -11 -5 -23 -11 -27 -15 -9 -33 12 -26 30 9 23 37 20 37 -3z m-330 -39 c0 -4 -9 -8 -20 -9 -11 -1 -18 2 -15 8 7 11 35 12 35 1z m-570 -22 c0 -5 -2 -10 -4 -10 -3 0 -8 5 -11 10 -3 6 -1 10 4 10 6 0 11 -4 11 -10z m83 -21 c-4 -21 -1 -34 8 -40 11 -7 11 -9 -2 -9 -21 0 -31 37 -18 62 14 27 19 22 12 -13z m49 -31 c-6 -6 -15 -7 -21 -4 -17 11 -13 34 7 45 13 8 18 6 20 -11 2 -11 -1 -25 -6 -30z m108 42 c0 -5 -4 -10 -9 -10 -5 0 -8 -6 -7 -12 0 -7 -3 -15 -8 -18 -10 -5 -18 29 -10 42 7 11 34 10 34 -2z m36 -25 c2 -16 -2 -25 -11 -25 -12 0 -13 13 -6 59 2 13 15 -13 17 -34z m189 0 c0 -19 -4 -35 -10 -35 -11 0 -19 46 -9 61 11 18 19 8 19 -26z m147 5 c4 -23 1 -30 -12 -30 -13 0 -17 8 -16 30 1 39 22 39 28 0z m39 5 c7 17 8 17 8 -7 1 -18 -4 -28 -13 -28 -18 0 -30 35 -19 52 5 9 9 5 12 -12 3 -23 4 -24 12 -5z m-601 -5 c0 -11 -4 -20 -10 -20 -5 0 -10 7 -10 16 0 8 -4 12 -10 9 -5 -3 -10 -1 -10 4 0 6 9 11 20 11 13 0 20 -7 20 -20z m138 -2 c-2 -13 -10 -23 -18 -23 -8 0 -16 10 -18 23 -3 17 2 22 18 22 16 0 21 -5 18 -22z m141 -5 l-1 -28 -8 25 c-5 17 -8 19 -9 8 -1 -25 -21 -23 -21 2 0 13 7 20 20 20 15 0 20 -6 19 -27z m49 5 c-2 -13 -10 -23 -18 -23 -8 0 -16 10 -18 23 -3 17 2 22 18 22 16 0 21 -5 18 -22z m42 3 c0 -23 -16 -36 -25 -21 -3 5 -2 10 4 10 6 0 8 7 5 15 -4 8 -1 15 5 15 6 0 11 -9 11 -19z m100 7 c0 -7 -4 -19 -9 -27 -7 -11 -11 -10 -20 7 -15 28 -14 32 9 32 11 0 20 -6 20 -12z m50 -11 c0 -16 -6 -23 -20 -24 -11 -1 -20 4 -20 13 0 8 6 14 13 14 8 0 7 4 -3 10 -12 8 -11 10 8 10 16 0 22 -6 22 -23z m140 -2 c0 -25 -23 -35 -35 -15 -10 16 2 40 20 40 9 0 15 -9 15 -25z m38 0 c1 -14 -2 -25 -7 -25 -5 0 -8 11 -8 25 0 14 2 25 6 25 4 0 8 -11 9 -25z m-565 -81 c5 -28 4 -31 -14 -27 -16 5 -18 8 -7 15 10 8 11 11 0 15 -10 4 -10 8 -1 19 14 17 15 17 22 -22z m92 -4 c0 -42 -18 -50 -23 -11 -3 17 12 51 22 51 1 0 2 -18 1 -40z m51 -14 c-3 -14 -12 -26 -18 -26 -6 0 -8 3 -5 7 4 3 3 11 -3 18 -5 6 -6 21 -3 34 5 20 7 21 21 8 9 -10 12 -24 8 -41z m-101 38 c13 -5 14 -9 3 -15 -11 -7 -10 -11 2 -19 12 -8 11 -10 -7 -10 -18 0 -23 6 -23 25 0 27 1 28 25 19z m283 -15 c-11 -8 -11 -10 1 -18 9 -6 10 -11 2 -15 -6 -4 -15 3 -20 16 -11 28 -5 39 15 31 13 -5 13 -7 2 -14z m-369 -11 c0 -22 -1 -22 -9 -3 -5 11 -9 14 -9 7 -1 -7 -5 -10 -11 -7 -17 10 -11 25 10 25 14 0 20 -6 19 -22z m231 18 c0 -3 -4 -8 -10 -11 -5 -3 -10 -1 -10 4 0 6 5 11 10 11 6 0 10 -2 10 -4z m100 -17 c0 -23 -28 -25 -36 -4 -4 8 -10 15 -15 15 -4 0 -6 -7 -3 -15 4 -9 0 -15 -10 -15 -9 0 -16 8 -16 19 0 16 7 20 40 19 32 0 40 -4 40 -19z m86 -9 c8 0 14 -5 14 -11 0 -5 -5 -7 -11 -3 -6 3 -15 0 -20 -7 -6 -9 -8 -3 -8 21 1 19 3 27 6 18 2 -10 11 -18 19 -18z m-192 -15 c-4 -8 -8 -15 -10 -15 -2 0 -4 7 -4 15 0 8 4 15 10 15 5 0 7 -7 4 -15z m-136 -66 c4 -40 -12 -30 -22 14 -5 21 -3 28 6 25 7 -3 14 -20 16 -39z m94 13 c-7 -2 -12 -10 -12 -18 0 -8 -4 -14 -10 -14 -5 0 -10 9 -10 20 0 11 7 20 15 20 8 0 15 6 16 13 0 8 3 7 6 -2 3 -8 1 -17 -5 -19z m190 -2 c4 -25 1 -30 -16 -30 -16 0 -18 2 -7 9 7 5 10 14 7 20 -6 10 0 31 8 31 2 0 6 -13 8 -30z m-132 0 c0 -5 -8 -10 -17 -11 -15 0 -15 -2 2 -9 19 -8 19 -9 -2 -9 -17 -1 -23 5 -23 19 0 13 7 20 20 20 11 0 20 -4 20 -10z m71 -7 c0 -15 2 -15 9 2 8 19 9 19 9 -2 1 -14 -5 -23 -14 -23 -8 0 -15 7 -15 15 0 8 -5 15 -11 15 -7 0 -9 -10 -5 -25 7 -28 1 -32 -20 -11 -24 25 -17 46 16 46 22 0 30 -5 31 -17z m161 10 c12 -6 -3 -33 -18 -33 -8 0 -17 7 -20 15 -4 8 -11 15 -16 15 -6 0 -8 -7 -4 -15 3 -9 0 -15 -9 -15 -8 0 -15 9 -15 20 0 16 6 19 38 18 20 0 40 -3 44 -5z m-351 -46 c-8 -8 -11 -7 -11 4 0 20 13 34 18 19 3 -7 -1 -17 -7 -23z m348 -14 c14 10 14 10 4 -4 -7 -9 -10 -19 -6 -22 3 -4 1 -7 -5 -7 -6 0 -9 -6 -6 -14 3 -8 1 -17 -5 -20 -6 -4 -9 5 -7 21 1 16 -2 35 -8 43 -8 12 -8 13 4 3 11 -10 17 -10 29 0z m-279 -23 c0 -5 -6 -11 -12 -13 -10 -4 -9 -8 2 -16 13 -9 13 -11 -1 -11 -17 0 -29 26 -22 47 5 13 33 6 33 -7z m50 -20 c0 -13 -7 -20 -20 -20 -16 0 -20 7 -20 30 0 28 2 30 20 20 11 -6 20 -20 20 -30z m44 -12 c7 -5 3 -8 -9 -8 -17 0 -21 6 -19 28 2 37 6 42 11 12 3 -14 10 -28 17 -32z m42 22 c1 -22 -3 -30 -15 -30 -14 0 -14 2 -1 10 10 6 11 10 3 10 -7 0 -13 6 -13 14 0 8 6 17 13 19 6 3 12 6 12 6 0 1 1 -12 1 -29z m42 13 c11 -20 -2 -63 -18 -63 -8 0 -8 6 0 20 8 14 8 26 0 40 -7 13 -7 20 -1 20 6 0 14 -8 19 -17z m50 0 c11 -20 -2 -63 -17 -63 -7 0 -7 8 -2 23 5 14 5 30 0 40 -7 11 -6 17 0 17 6 0 14 -8 19 -17z m94 -13 c4 -25 1 -30 -16 -30 -16 0 -18 2 -7 9 7 5 10 14 7 20 -6 10 0 31 8 31 2 0 6 -13 8 -30z m56 -8 c3 -17 -2 -22 -17 -22 -14 0 -21 6 -21 18 0 38 33 41 38 4z m37 -12 c3 -5 -1 -10 -10 -10 -9 0 -13 5 -10 10 3 6 8 10 10 10 2 0 7 -4 10 -10z m-370 -49 c10 -17 -12 -21 -25 -6 -10 12 -10 15 3 15 9 0 18 -4 22 -9z m45 -27 c0 -14 -6 -24 -14 -24 -19 0 -26 21 -14 43 12 23 28 12 28 -19z m95 26 c3 -5 1 -10 -4 -10 -6 0 -11 -8 -11 -17 0 -16 2 -16 11 -3 9 12 10 12 5 -3 -3 -10 -6 -23 -6 -28 0 -6 -4 -7 -10 -4 -13 8 -13 75 -1 75 6 0 13 -4 16 -10z m43 -16 c1 -14 -3 -33 -9 -42 -9 -14 -9 -13 -5 7 3 13 1 33 -5 43 -7 13 -6 18 3 18 8 0 15 -12 16 -26z m55 19 c-7 -2 -13 -17 -13 -33 0 -16 6 -31 13 -33 7 -3 5 -6 -5 -6 -11 -1 -18 6 -19 17 0 9 -2 27 -3 40 -2 17 2 22 18 21 12 0 15 -3 9 -6z m42 -23 c0 -24 -4 -30 -20 -29 -11 0 -14 3 -8 6 8 3 11 14 7 29 -4 17 -2 24 7 24 9 0 14 -11 14 -30z m55 14 c0 -8 -4 -12 -10 -9 -5 3 -10 -1 -10 -10 0 -10 5 -14 13 -9 9 5 9 4 0 -6 -6 -7 -16 -9 -22 -6 -12 8 -15 39 -4 49 12 13 33 7 33 -9z m34 -7 c-5 -15 -3 -18 7 -12 11 6 11 5 2 -5 -6 -7 -9 -19 -6 -26 3 -8 1 -14 -5 -14 -12 0 -22 24 -22 54 0 14 6 23 15 23 11 0 13 -6 9 -20z m51 -14 c2 -23 -1 -30 -11 -26 -17 6 -19 66 -3 61 7 -2 13 -18 14 -35z m-326 0 l-1 -28 -8 25 c-8 24 -8 24 -9 3 -1 -13 -5 -23 -11 -23 -8 0 -8 23 -1 48 1 1 8 2 16 2 10 0 15 -9 14 -27z m361 -8 c10 -12 10 -15 -4 -15 -9 0 -16 7 -16 15 0 8 2 15 4 15 2 0 9 -7 16 -15z m-366 -67 c7 -22 7 -22 16 -3 5 11 9 14 9 8 1 -7 6 -13 12 -13 5 0 7 5 4 10 -3 6 -1 10 4 10 6 0 9 -14 8 -30 -4 -36 -17 -52 -17 -21 0 15 -5 21 -16 19 -9 -2 -23 7 -31 20 -9 12 -11 22 -5 22 5 0 13 -10 16 -22z m196 12 c0 -5 -5 -10 -12 -10 -9 0 -9 -3 -1 -11 11 -11 6 -49 -7 -49 -9 0 -19 68 -11 75 8 9 31 5 31 -5z m134 -17 c-6 -2 -9 -15 -6 -28 2 -15 0 -25 -7 -25 -7 0 -10 4 -7 9 3 4 -1 17 -9 27 -13 18 -13 17 -11 -9 2 -17 -1 -26 -8 -24 -6 2 -10 17 -9 33 2 22 0 25 -7 14 -8 -13 -10 -12 -10 4 0 14 5 17 24 12 14 -3 28 -1 32 5 4 8 10 7 18 -1 8 -9 8 -14 0 -17z m47 4 c-6 -6 -11 -21 -11 -33 0 -12 -7 -24 -15 -28 -11 -4 -15 1 -15 19 0 14 5 25 11 25 6 0 9 6 6 14 -7 18 1 26 20 19 10 -4 11 -9 4 -16z m-274 -3 c2 -6 -5 -14 -17 -17 -15 -4 -20 0 -20 15 0 21 30 23 37 2z m37 0 c9 -24 7 -28 -9 -14 -17 14 -20 30 -6 30 5 0 12 -7 15 -16z m107 3 c0 -7 2 -22 3 -34 2 -13 -1 -23 -6 -23 -4 0 -8 9 -8 19 0 11 -4 22 -9 25 -4 3 -6 -6 -3 -19 3 -19 0 -25 -13 -25 -13 0 -16 6 -11 23 3 12 6 27 6 32 0 15 40 16 41 2z m182 -7 c7 -26 -2 -60 -16 -60 -6 0 -8 2 -5 6 3 3 2 21 -2 40 -6 25 -5 34 5 34 7 0 15 -9 18 -20z m-303 -36 c0 -8 -7 -14 -15 -14 -15 0 -21 21 -9 33 10 9 24 -2 24 -19z m270 6 c0 -11 -4 -20 -10 -20 -5 0 -10 9 -10 20 0 11 5 20 10 20 6 0 10 -9 10 -20z m-323 -22 c-3 -8 -6 -5 -6 6 -1 11 2 17 5 13 3 -3 4 -12 1 -19z m78 12 c3 -5 1 -10 -4 -10 -6 0 -11 5 -11 10 0 6 2 10 4 10 3 0 8 -4 11 -10z m33 -55 c0 -13 -4 -22 -9 -19 -5 3 -9 14 -9 25 0 10 4 19 9 19 5 0 9 -11 9 -25z m41 -17 c1 -5 -5 -8 -13 -8 -9 0 -12 8 -8 27 5 25 6 25 13 8 4 -11 8 -23 8 -27z m98 12 c0 -16 -4 -27 -9 -24 -10 6 -11 38 -1 47 9 10 10 10 10 -23z m34 -17 c-9 -15 -10 -12 -10 17 0 29 1 32 10 18 7 -12 7 -24 0 -35z m35 17 c1 -16 -3 -27 -7 -24 -11 6 -12 54 -1 54 4 0 7 -13 8 -30z m101 -1 c2 -12 -1 -18 -7 -14 -5 3 -10 16 -10 27 0 26 13 16 17 -13z m-356 2 c-13 -14 -17 -14 -20 -2 -2 8 -6 10 -10 4 -4 -7 -10 -6 -19 3 -11 12 -6 14 26 12 36 -1 38 -2 23 -17z m113 7 c-6 -10 -4 -10 7 0 21 19 39 14 38 -10 -1 -17 -2 -19 -6 -6 -4 16 -6 16 -20 3 -8 -8 -19 -13 -24 -10 -12 8 -11 35 2 35 5 0 7 -6 3 -12z m216 -4 c0 -20 -19 -27 -26 -10 -3 9 -10 16 -16 16 -5 0 -6 -4 -3 -10 3 -5 1 -10 -4 -10 -6 0 -11 6 -11 14 0 10 10 14 30 14 17 -1 30 -6 30 -14z m68 -8 c3 -12 -1 -17 -10 -14 -7 3 -15 13 -16 22 -3 12 1 17 10 14 7 -3 15 -13 16 -22z m-378 -6 c0 -5 -4 -10 -10 -10 -5 0 -10 5 -10 10 0 6 5 10 10 10 6 0 10 -4 10 -10z m0 -30 c0 -5 -5 -10 -11 -10 -5 0 -7 5 -4 10 3 6 8 10 11 10 2 0 4 -4 4 -10z m276 -6 c-3 -9 -6 -20 -6 -25 0 -5 -4 -9 -10 -9 -11 0 -14 33 -3 43 12 13 25 7 19 -9z m-206 -16 c0 -22 -18 -24 -27 -2 -6 15 -8 15 -20 -2 -12 -17 -13 -17 -13 3 0 18 6 21 30 21 22 -1 30 -6 30 -20z m26 2 c0 -11 -4 -20 -8 -20 -4 0 -8 9 -8 20 0 11 4 20 8 20 4 0 8 -9 8 -20z m35 5 c7 19 8 19 8 -2 1 -14 -5 -23 -14 -23 -9 0 -15 9 -14 23 1 20 2 20 7 2 5 -20 5 -20 13 0z m39 8 c0 -5 -5 -15 -10 -23 -8 -12 -10 -11 -10 8 0 12 5 22 10 22 6 0 10 -3 10 -7z m40 -15 c0 -17 -3 -19 -9 -9 -7 11 -9 11 -14 0 -3 -8 -6 -4 -6 9 -1 13 5 22 14 22 9 0 15 -9 15 -22z m100 2 c0 -11 -7 -20 -15 -20 -8 0 -15 8 -15 18 0 14 2 15 10 2 8 -13 10 -12 10 3 0 9 2 17 5 17 3 0 5 -9 5 -20z m70 -2 c0 -11 -7 -18 -20 -18 -11 0 -20 6 -20 13 0 8 -4 7 -10 -3 -8 -12 -10 -11 -10 6 0 16 6 21 30 21 22 0 30 -5 30 -19z m27 2 c-1 -11 -5 -20 -9 -20 -4 0 -8 9 -8 20 0 11 4 20 9 20 6 0 9 -9 8 -20z m33 0 c8 -15 8 -20 -3 -20 -7 0 -13 9 -14 20 -1 11 0 20 2 20 2 0 9 -9 15 -20z m-343 -71 c2 -12 -1 -18 -7 -14 -5 3 -10 16 -10 27 0 26 13 16 17 -13z m38 1 c0 -16 -3 -30 -6 -30 -11 0 -19 29 -13 45 10 25 19 17 19 -15z m32 -30 c-1 -33 -5 -60 -9 -60 -4 0 -6 27 -5 60 1 33 5 60 9 60 4 0 6 -27 5 -60z m73 34 c0 -14 -5 -24 -11 -22 -6 2 -10 7 -10 11 1 4 1 14 1 22 0 8 5 15 10 15 6 0 10 -12 10 -26z m69 19 c0 -5 -4 -17 -9 -28 -9 -20 -9 -20 -10 0 -1 19 -1 19 -11 2 -11 -19 -29 -14 -29 8 0 12 9 16 53 24 4 0 7 -2 6 -6z m28 -24 c2 -12 -1 -18 -7 -14 -5 3 -10 16 -10 27 0 26 13 16 17 -13z m70 1 c2 -11 -2 -20 -7 -20 -6 0 -10 12 -10 27 0 29 12 24 17 -7z m50 18 c8 21 25 13 21 -10 -3 -22 -18 -26 -57 -12 -11 3 -11 7 -1 20 11 12 15 12 22 2 8 -10 11 -10 15 0z m-387 -8 c0 -5 -2 -10 -4 -10 -3 0 -8 5 -11 10 -3 6 -1 10 4 10 6 0 11 -4 11 -10z m307 -5 c0 -8 -4 -15 -8 -15 -11 0 -20 16 -12 24 11 11 20 7 20 -9z m133 -17 c0 -19 -2 -20 -10 -8 -13 19 -13 30 0 30 6 0 10 -10 10 -22z m-307 -37 c2 -10 1 -25 -4 -32 -6 -10 -9 -4 -9 19 0 36 5 42 13 13z m33 -11 c-1 -35 -16 -41 -16 -7 0 20 7 37 15 37 1 0 2 -13 1 -30z m-96 4 c0 -14 -3 -14 -15 -4 -8 7 -15 14 -15 16 0 2 7 4 15 4 8 0 15 -7 15 -16z m170 -6 c0 -22 -18 -24 -27 -2 -6 15 -8 15 -20 -2 -12 -17 -13 -17 -13 3 0 18 6 21 30 21 22 -1 30 -6 30 -20z m26 2 c0 -11 -4 -20 -8 -20 -4 0 -8 9 -8 20 0 11 4 20 8 20 4 0 8 -9 8 -20z m35 5 c7 19 8 19 8 -2 1 -14 -5 -23 -14 -23 -9 0 -15 9 -14 23 1 20 2 20 7 2 5 -20 5 -20 13 0z m39 8 c0 -5 -5 -15 -10 -23 -8 -12 -10 -11 -10 8 0 12 5 22 10 22 6 0 10 -3 10 -7z m39 -15 c-1 -21 -2 -21 -7 -3 -5 20 -5 20 -13 0 -7 -19 -8 -19 -8 3 -1 13 5 22 14 22 9 0 15 -9 14 -22z m57 7 c-3 -8 -1 -15 4 -15 6 0 10 7 10 15 0 8 7 15 15 15 9 0 15 -9 15 -22 0 -19 -2 -20 -10 -8 -6 10 -10 11 -10 3 0 -7 -9 -13 -20 -13 -13 0 -20 7 -20 20 0 11 5 20 11 20 6 0 9 -7 5 -15z m-270 -70 c1 -8 -2 -15 -7 -15 -5 0 -9 10 -9 22 0 23 12 17 16 -7z m44 -5 c0 -11 -5 -22 -12 -26 -7 -4 -8 -3 -4 4 4 7 2 12 -3 12 -6 0 -11 9 -11 20 0 13 5 18 15 14 8 -4 15 -14 15 -24z m23 10 c3 -11 1 -20 -4 -20 -5 0 -9 9 -9 20 0 11 2 20 4 20 2 0 6 -9 9 -20z m107 0 c0 -15 -6 -19 -24 -18 -16 2 -22 7 -18 16 4 11 6 11 13 0 7 -10 9 -9 9 5 0 9 5 17 10 17 6 0 10 -9 10 -20z m70 -6 c0 -9 -11 -14 -30 -14 -27 0 -40 17 -25 32 10 10 55 -5 55 -18z m66 1 c1 -8 -2 -15 -7 -15 -5 0 -9 6 -10 13 0 6 -4 2 -9 -10 -12 -30 -30 -29 -30 1 0 18 6 26 23 28 26 4 30 2 33 -17z m44 -1 c0 -8 -7 -14 -15 -14 -8 0 -15 9 -15 20 0 13 5 18 15 14 8 -4 15 -12 15 -20z m-383 1 c0 -11 -4 -12 -14 -4 -7 6 -13 13 -13 15 0 2 6 4 13 4 8 0 14 -7 14 -15z m137 0 c3 -9 0 -15 -9 -15 -8 0 -15 7 -15 15 0 8 4 15 9 15 5 0 11 -7 15 -15z m306 -15 c0 -5 -4 -10 -9 -10 -6 0 -13 5 -16 10 -3 6 1 10 9 10 9 0 16 -4 16 -10z"/> <path d="M1705 2880 c3 -5 8 -10 11 -10 2 0 4 5 4 10 0 6 -5 10 -11 10 -5 0 -7 -4 -4 -10z"/> <path d="M2340 2840 c0 -5 5 -10 10 -10 6 0 10 5 10 10 0 6 -4 10 -10 10 -5 0 -10 -4 -10 -10z"/> <path d="M3200 2660 c0 -5 5 -10 10 -10 6 0 10 5 10 10 0 6 -4 10 -10 10 -5 0 -10 -4 -10 -10z"/> <path d="M3390 2570 c0 -5 5 -10 10 -10 6 0 10 5 10 10 0 6 -4 10 -10 10 -5 0 -10 -4 -10 -10z"/> <path d="M3200 2400 c0 -19 3 -21 12 -12 9 9 9 15 0 24 -9 9 -12 7 -12 -12z"/> <path d="M2530 2225 c0 -8 5 -15 10 -15 6 0 10 7 10 15 0 8 -4 15 -10 15 -5 0 -10 -7 -10 -15z"/> <path d="M2910 2140 c0 -5 5 -10 10 -10 6 0 10 5 10 10 0 6 -4 10 -10 10 -5 0 -10 -4 -10 -10z"/> <path d="M2340 2130 c0 -5 5 -10 10 -10 6 0 10 5 10 10 0 6 -4 10 -10 10 -5 0 -10 -4 -10 -10z"/> <path d="M2441 2124 c0 -11 3 -14 6 -6 3 7 2 16 -1 19 -3 4 -6 -2 -5 -13z"/> <path d="M3100 2130 c0 -5 5 -10 11 -10 5 0 7 5 4 10 -3 6 -8 10 -11 10 -2 0 -4 -4 -4 -10z"/> <path d="M2720 1770 c0 -5 5 -10 11 -10 5 0 7 5 4 10 -3 6 -8 10 -11 10 -2 0 -4 -4 -4 -10z"/> <path d="M2771 1684 c0 -11 3 -14 6 -6 3 7 2 16 -1 19 -3 4 -6 -2 -5 -13z"/> <path d="M1042 3026 c-10 -16 -11 -166 0 -172 4 -3 5 -10 1 -17 -10 -16 -12 -107 -2 -113 5 -3 3 -14 -3 -24 -10 -15 -10 -22 -1 -31 9 -9 9 -16 0 -30 -9 -14 -9 -21 1 -31 9 -9 12 -8 12 8 0 13 7 20 20 21 14 1 20 -4 20 -19 0 -13 -5 -18 -14 -15 -21 8 -33 -12 -40 -70 -6 -51 8 -86 17 -41 2 13 2 10 0 -7 -3 -16 -6 -90 -8 -163 -2 -73 -5 -136 -9 -139 -3 -3 -2 -13 3 -22 5 -9 5 -42 2 -74 -4 -32 -4 -60 0 -62 8 -5 5 -57 -3 -71 -5 -7 -4 -151 1 -176 0 -4 8 -14 17 -23 12 -12 19 -13 30 -4 15 13 34 4 34 -16 0 -18 -20 -30 -29 -18 -8 12 -53 24 -46 12 3 -4 0 -17 -7 -28 -10 -16 -10 -23 0 -33 9 -9 12 -7 12 10 0 13 6 22 15 22 9 0 15 -9 14 -22 0 -13 -3 -17 -6 -10 -3 9 -11 4 -23 -16 -14 -23 -17 -45 -14 -113 5 -106 4 -160 -2 -170 -2 -4 0 -10 6 -14 5 -3 10 1 10 9 0 9 7 16 15 16 8 0 15 -4 15 -10 0 -5 -3 -10 -8 -10 -4 0 -15 -15 -25 -33 -20 -36 -15 -108 8 -127 14 -11 273 -8 293 3 6 5 21 3 32 -3 11 -6 52 -10 92 -10 99 1 156 1 265 0 102 -2 117 3 108 31 -4 12 -2 19 6 19 7 0 9 -3 6 -6 -3 -4 -2 -14 3 -24 12 -22 43 -24 399 -22 287 1 329 6 289 36 -15 11 -15 13 3 24 23 14 25 55 4 72 -19 16 -19 39 1 61 22 24 27 166 7 183 -8 6 -19 17 -26 25 -59 68 -261 261 -273 261 -27 0 -30 -36 -24 -220 4 -98 3 -100 -30 -100 -18 0 -33 -6 -36 -15 -4 -10 -10 -12 -18 -6 -6 5 -33 11 -61 13 -27 2 -55 7 -62 11 -6 4 -14 3 -18 -3 -3 -5 -13 -10 -22 -10 -9 0 -22 -8 -30 -18 -8 -9 -12 -12 -9 -5 4 6 1 15 -5 19 -14 8 -269 13 -269 5 0 -6 -204 -6 -225 -1 -5 1 -21 2 -34 1 -20 -1 -22 -4 -13 -13 15 -15 15 -45 0 -54 -8 -5 -9 -2 -5 10 4 10 2 27 -5 39 -7 12 -11 32 -9 44 1 11 -3 24 -8 28 -15 9 -14 68 1 83 10 10 10 17 0 32 -6 10 -10 25 -8 32 1 7 1 10 -1 6 -3 -5 -13 -8 -24 -8 -14 0 -19 7 -19 26 0 14 4 23 10 19 5 -3 7 -12 3 -20 -3 -8 -1 -15 4 -15 15 0 42 76 32 91 -4 7 -4 18 0 24 8 11 8 26 0 40 -11 18 -20 67 -12 62 5 -3 9 24 10 61 3 63 -9 98 -28 86 -5 -3 -9 4 -9 15 0 12 7 21 16 21 8 0 12 -4 9 -10 -3 -5 -3 -15 1 -21 4 -8 9 -7 15 2 4 8 3 19 -3 26 -7 9 -7 17 -1 26 12 14 12 86 0 104 -4 6 -2 15 4 18 6 5 8 22 4 47 -5 31 -4 39 5 33 9 -5 9 -1 -1 16 -17 32 -19 58 -7 97 7 24 7 37 -2 47 -6 8 -8 19 -4 26 11 19 14 81 4 99 -6 11 -5 21 1 27 22 22 -2 82 -53 133 -27 28 -56 50 -63 50 -7 0 -15 10 -19 23 -3 13 -17 29 -31 37 -13 7 -27 22 -31 32 -3 11 -21 26 -39 35 -19 9 -32 19 -30 23 7 11 -28 37 -48 37 -10 0 -21 -5 -25 -11z m15 -28 c-3 -8 -6 -5 -6 6 -1 11 2 17 5 13 3 -3 4 -12 1 -19z m37 7 c3 -8 1 -15 -3 -15 -5 0 -11 7 -15 15 -3 8 -1 15 3 15 5 0 11 -7 15 -15z m-4 -50 c0 -8 5 -15 10 -15 6 0 10 8 10 18 0 14 2 15 10 2 16 -25 12 -30 -30 -30 -32 0 -40 4 -39 18 0 10 3 12 6 5 2 -7 9 -13 15 -13 6 0 8 7 4 15 -3 8 -1 15 4 15 6 0 10 -7 10 -15z m70 -10 c10 -12 10 -15 -4 -15 -9 0 -16 7 -16 15 0 8 2 15 4 15 2 0 9 -7 16 -15z m-4 -64 c-1 -31 -16 -33 -16 -2 0 15 8 31 15 31 1 0 2 -13 1 -29z m74 -5 c11 -14 8 -16 -18 -16 -34 0 -47 13 -38 36 6 17 33 7 56 -20z m-173 -8 c-3 -7 -5 -2 -5 12 0 14 2 19 5 13 2 -7 2 -19 0 -25z m73 12 c0 -11 -7 -20 -15 -20 -8 0 -15 9 -15 20 0 11 7 20 15 20 8 0 15 -9 15 -20z m27 -65 c1 -14 3 -36 4 -50 2 -31 -7 -43 -23 -27 -8 8 -8 15 1 25 6 8 9 22 5 31 -5 14 0 46 8 46 2 0 4 -11 5 -25z m36 13 c2 -7 1 -22 -3 -33 -6 -17 -8 -15 -12 13 -4 31 5 45 15 20z m33 -18 c1 -16 -3 -27 -7 -24 -11 6 -12 54 -1 54 4 0 7 -13 8 -30z m-96 2 c0 -15 -2 -15 -10 -2 -5 8 -10 10 -10 4 0 -6 -13 -10 -30 -10 -45 0 -36 21 10 23 31 1 40 -2 40 -15z m164 -2 c7 -7 5 -10 -7 -10 -9 0 -17 6 -18 13 0 10 -2 10 -6 0 -7 -18 -23 -16 -23 1 0 16 36 14 54 -4z m-231 -50 c3 -11 1 -23 -4 -26 -5 -3 -9 6 -9 20 0 31 6 34 13 6z m29 -5 c3 -15 1 -25 -6 -25 -6 0 -13 11 -14 25 -1 14 2 25 7 25 5 0 11 -11 13 -25z m30 -6 c-4 -24 -7 -28 -13 -16 -5 8 -6 22 -3 31 11 27 21 17 16 -15z m228 6 c27 -28 17 -34 -13 -7 -19 16 -20 16 -14 -1 4 -11 3 -16 -3 -12 -12 7 -13 45 -2 45 5 0 19 -11 32 -25z m-80 -7 c0 -10 -7 -18 -15 -18 -8 0 -15 6 -15 13 0 8 -3 7 -10 -3 -7 -11 -12 -12 -21 -3 -17 17 -3 31 31 29 22 0 30 -6 30 -18z m30 7 c0 -8 -4 -15 -10 -15 -5 0 -10 7 -10 15 0 8 5 15 10 15 6 0 10 -7 10 -15z m-110 -15 c0 -5 -5 -10 -11 -10 -5 0 -7 5 -4 10 3 6 8 10 11 10 2 0 4 -4 4 -10z m-69 -47 c1 -17 2 -17 6 0 6 22 27 17 31 -6 3 -13 -4 -17 -27 -17 -24 0 -31 4 -31 20 0 25 20 27 21 3z m80 -13 c5 0 8 4 7 9 -2 5 1 11 7 13 5 1 11 -5 13 -14 3 -14 -3 -18 -26 -18 -23 0 -29 4 -27 18 5 27 7 28 12 10 2 -10 9 -18 14 -18z m57 -14 c0 -24 3 -49 6 -55 4 -6 1 -11 -7 -11 -10 0 -14 14 -13 55 1 30 4 55 8 55 4 0 7 -20 6 -44z m42 19 c0 -8 -4 -17 -10 -20 -6 -4 -10 5 -10 20 0 15 4 24 10 20 6 -3 10 -12 10 -20z m68 2 c2 -10 -3 -17 -12 -17 -10 0 -16 9 -16 21 0 24 23 21 28 -4z m-311 -9 c-3 -8 -6 -5 -6 6 -1 11 2 17 5 13 3 -3 4 -12 1 -19z m273 -2 c0 -3 -4 -8 -10 -11 -5 -3 -10 -1 -10 4 0 6 5 11 10 11 6 0 10 -2 10 -4z m-175 -56 c1 -11 -2 -20 -7 -20 -4 0 -8 12 -8 27 0 30 13 24 15 -7z m44 -4 c-1 -20 -2 -20 -7 -1 -5 20 -5 20 -13 0 -7 -17 -8 -17 -8 7 -1 20 3 26 14 22 8 -4 14 -16 14 -28z m97 18 c-3 -9 -6 -21 -7 -27 0 -7 -4 -3 -8 8 -9 22 -5 35 11 35 5 0 7 -7 4 -16z m31 -14 c0 -16 -4 -27 -9 -24 -10 6 -11 38 -1 47 9 10 10 10 10 -23z m-197 -5 c0 -16 -6 -25 -15 -25 -9 0 -15 9 -15 25 0 16 6 25 15 25 9 0 15 -9 15 -25z m95 4 c-6 -33 -15 -36 -15 -6 0 15 4 27 9 27 6 0 8 -10 6 -21z m135 11 c-10 -6 -11 -10 -2 -10 6 0 12 -4 12 -10 0 -5 -7 -10 -15 -10 -8 0 -15 9 -15 20 0 12 7 20 18 20 14 0 15 -2 2 -10z m-270 -67 c0 -15 1 -15 13 1 12 16 13 16 13 -1 0 -14 -8 -20 -28 -21 -30 -2 -31 -2 -22 22 8 21 24 20 24 -1z m70 -3 c0 -11 -6 -20 -14 -20 -9 0 -12 7 -9 20 3 11 9 20 14 20 5 0 9 -9 9 -20z m70 -2 c0 -10 -5 -18 -11 -18 -5 0 -7 6 -3 13 5 8 2 8 -9 -2 -14 -11 -17 -11 -17 0 0 11 -2 11 -10 -1 -8 -12 -10 -11 -10 6 0 17 6 21 30 20 21 -1 30 -6 30 -18z m96 0 c0 -21 -7 -23 -25 -5 -11 10 -13 10 -7 0 5 -8 1 -13 -9 -13 -9 0 -13 5 -10 10 3 6 2 10 -4 10 -5 0 -11 -6 -14 -12 -2 -7 -8 -10 -12 -6 -17 16 4 33 42 33 31 1 39 -3 39 -17z m37 2 c-6 -22 -18 -26 -28 -10 -8 13 3 30 20 30 8 0 11 -7 8 -20z m-246 -87 c-4 -17 -4 -17 -12 0 -4 9 -4 25 0 35 8 16 8 16 12 0 3 -10 3 -26 0 -35z m43 23 c0 -14 -4 -28 -10 -31 -6 -4 -10 7 -10 24 0 17 5 31 10 31 6 0 10 -11 10 -24z m66 8 c-3 -9 -6 -21 -6 -27 0 -7 -5 -4 -11 6 -11 18 -5 37 13 37 5 0 7 -7 4 -16z m72 -11 c-5 -23 -23 -20 -26 4 -3 18 0 21 13 17 9 -4 15 -13 13 -21z m-208 2 c0 -8 -4 -15 -10 -15 -5 0 -10 7 -10 15 0 8 5 15 10 15 6 0 10 -7 10 -15z m170 0 c0 -8 -4 -15 -10 -15 -5 0 -10 7 -10 15 0 8 5 15 10 15 6 0 10 -7 10 -15z m108 -2 c-5 -25 -28 -28 -28 -4 0 12 6 21 16 21 9 0 14 -7 12 -17z m-178 -7 c0 -3 -4 -8 -10 -11 -5 -3 -10 -1 -10 4 0 6 5 11 10 11 6 0 10 -2 10 -4z m140 -6 c0 -5 -4 -10 -10 -10 -5 0 -10 5 -10 10 0 6 5 10 10 10 6 0 10 -4 10 -10z m-240 -50 c0 -24 -6 -25 -26 -6 -11 11 -11 16 -1 19 22 10 27 7 27 -13z m67 0 c1 -11 -4 -20 -12 -20 -8 0 -11 7 -8 20 3 11 8 20 12 20 4 0 7 -9 8 -20z m73 -4 c0 -17 -2 -18 -10 -6 -9 13 -10 13 -10 0 0 -13 -1 -13 -10 0 -6 10 -10 11 -10 3 0 -7 -4 -13 -10 -13 -5 0 -10 8 -10 18 0 14 8 19 30 19 24 0 30 -5 30 -21z m30 -1 c0 -14 -4 -25 -10 -25 -5 0 -10 11 -10 25 0 14 5 25 10 25 6 0 10 -11 10 -25z m31 8 c1 -17 2 -17 6 0 6 24 33 21 33 -4 0 -16 -5 -20 -27 -17 -26 3 -48 38 -24 38 6 0 12 -8 12 -17z m65 -31 c-11 -10 -15 4 -8 28 l7 25 3 -23 c2 -13 1 -26 -2 -30z m-239 -27 c0 -21 -47 -32 -58 -14 -6 10 -3 15 8 17 8 2 19 -2 24 -10 7 -10 9 -9 9 5 0 9 4 17 8 17 5 0 9 -7 9 -15z m36 -5 c3 -12 0 -20 -8 -20 -8 0 -11 8 -8 20 3 11 7 20 8 20 1 0 5 -9 8 -20z m136 -7 c-2 -24 -2 -25 -6 -5 -5 26 -23 20 -23 -9 0 -23 -15 -25 -24 -3 -9 23 -8 24 17 34 34 14 37 12 36 -17z m-89 13 c0 -2 3 -11 6 -19 4 -12 0 -14 -15 -10 -24 6 -29 33 -6 33 8 0 15 -2 15 -4z m124 -11 c-4 -8 -8 -15 -10 -15 -2 0 -4 7 -4 15 0 8 4 15 10 15 5 0 7 -7 4 -15z m46 0 c0 -8 -7 -15 -15 -15 -8 0 -15 7 -15 15 0 8 7 15 15 15 8 0 15 -7 15 -15z m-280 -61 c0 -17 -20 -29 -21 -12 0 7 -4 4 -9 -7 -7 -17 -9 -15 -7 11 1 25 5 30 19 26 10 -2 18 -10 18 -18z m62 1 c5 -22 2 -25 -23 -25 -22 0 -29 5 -29 20 0 25 15 26 30 3 10 -16 11 -15 7 5 -3 12 -2 22 3 22 4 0 10 -11 12 -25z m169 15 c5 0 9 -9 9 -20 0 -25 -16 -26 -29 -2 -10 16 -10 16 -11 0 0 -10 -4 -18 -10 -18 -11 0 -14 33 -3 44 4 3 13 4 21 1 7 -3 18 -5 23 -5z m-91 -22 c0 -21 -11 -23 -28 -6 -9 9 -12 9 -12 0 0 -7 -4 -12 -10 -12 -5 0 -10 8 -10 18 0 14 8 19 30 19 22 0 30 -5 30 -19z m30 2 c0 -11 -4 -20 -10 -20 -5 0 -10 9 -10 20 0 11 5 20 10 20 6 0 10 -9 10 -20z m108 -2 c2 -8 -4 -15 -13 -15 -8 0 -15 9 -15 20 0 22 23 18 28 -5z m-285 -58 c3 -11 1 -20 -4 -20 -5 0 -9 9 -9 20 0 11 2 20 4 20 2 0 6 -9 9 -20z m70 0 c-7 -26 -53 -28 -53 -2 0 14 2 15 10 2 9 -13 10 -13 10 0 0 13 1 13 10 0 8 -13 10 -12 10 3 0 9 4 17 9 17 5 0 7 -9 4 -20z m47 -6 c0 -8 -7 -14 -15 -14 -15 0 -21 21 -9 33 10 9 24 -2 24 -19z m17 -6 c-3 -7 -5 -2 -5 12 0 14 2 19 5 13 2 -7 2 -19 0 -25z m76 20 c5 -16 -2 -38 -13 -38 -5 0 -6 9 -3 20 7 25 -12 26 -26 3 -9 -16 -10 -16 -11 5 0 17 6 22 24 22 13 0 26 -6 29 -12z m77 -14 c0 -14 -21 -19 -33 -7 -9 9 13 34 24 27 5 -3 9 -12 9 -20z m-313 -6 c-3 -8 -6 -5 -6 6 -1 11 2 17 5 13 3 -3 4 -12 1 -19z m263 -8 c0 -5 -5 -10 -11 -10 -5 0 -7 5 -4 10 3 6 8 10 11 10 2 0 4 -4 4 -10z m-230 -40 c0 -11 -4 -20 -10 -20 -5 0 -10 9 -10 20 0 11 5 20 10 20 6 0 10 -9 10 -20z m161 10 c5 0 9 -7 9 -15 0 -20 -10 -19 -27 3 -13 15 -14 15 -10 -10 5 -31 -8 -39 -15 -10 -7 26 2 44 19 38 8 -3 19 -6 24 -6z m76 -19 c4 -27 -12 -20 -20 9 -3 13 -1 20 5 18 6 -2 13 -14 15 -27z m-270 -3 c-3 -8 -6 -5 -6 6 -1 11 2 17 5 13 3 -3 4 -12 1 -19z m103 8 c0 -23 -18 -28 -29 -9 -9 16 -12 16 -21 3 -8 -13 -10 -13 -10 3 0 12 8 17 30 17 19 0 30 -5 30 -14z m30 -1 c0 -8 -4 -15 -8 -15 -5 0 -9 7 -9 15 0 8 4 15 9 15 4 0 8 -7 8 -15z m108 -3 c2 -7 -3 -12 -12 -12 -9 0 -16 7 -16 16 0 17 22 14 28 -4z m70 1 c-4 -22 -22 -20 -26 1 -2 10 3 16 13 16 10 0 15 -7 13 -17z m-284 -48 c6 -17 -2 -45 -14 -45 -4 0 -6 12 -3 28 3 23 2 24 -6 7 -7 -15 -10 -16 -10 -4 -2 29 23 40 33 14z m36 -21 c0 -35 -15 -30 -16 6 -1 16 3 27 7 24 5 -3 9 -16 9 -30z m66 -11 c-14 -14 -23 4 -13 27 l10 25 5 -23 c2 -13 1 -26 -2 -29z m144 16 c0 -20 -15 -26 -25 -9 -9 15 3 43 15 35 5 -3 10 -15 10 -26z m-101 4 c10 -17 10 -17 11 0 0 9 5 17 10 17 6 0 10 -9 10 -20 0 -13 -7 -20 -20 -20 -11 0 -20 6 -20 13 0 8 -4 7 -10 -3 -8 -12 -10 -11 -10 8 0 26 15 29 29 5z m57 -3 c0 -11 -4 -20 -8 -20 -4 0 -8 9 -8 20 0 11 4 20 8 20 4 0 8 -9 8 -20z m-144 -22 c-7 -7 -12 -8 -12 -2 0 14 12 26 19 19 2 -3 -1 -11 -7 -17z m-57 -43 c0 -14 -3 -25 -7 -25 -5 0 -8 11 -8 25 0 14 3 25 8 25 4 0 7 -11 7 -25z m35 0 c0 -14 -3 -25 -7 -25 -5 0 -8 11 -8 25 0 14 3 25 8 25 4 0 7 -11 7 -25z m36 -7 c1 -28 0 -30 -12 -14 -7 10 -10 24 -7 32 9 24 18 15 19 -18z m34 12 c0 -11 -4 -20 -10 -20 -5 0 -10 9 -10 20 0 11 5 20 10 20 6 0 10 -9 10 -20z m40 16 c0 -2 -3 -11 -6 -20 -9 -23 -24 -20 -24 4 0 11 7 20 15 20 8 0 15 -2 15 -4z m25 -21 c0 -14 -3 -25 -7 -25 -5 0 -8 11 -8 25 0 14 3 25 8 25 4 0 7 -11 7 -25z m32 5 c-1 -11 -5 -20 -9 -20 -4 0 -8 9 -8 20 0 11 4 20 9 20 6 0 9 -9 8 -20z m41 -3 c2 -10 -3 -17 -12 -17 -10 0 -16 9 -16 21 0 24 23 21 28 -4z m35 3 c3 -13 0 -20 -9 -20 -8 0 -14 9 -14 20 0 11 4 20 9 20 5 0 11 -9 14 -20z m-306 -12 c-3 -8 -6 -5 -6 6 -1 11 2 17 5 13 3 -3 4 -12 1 -19z m133 -35 c0 -5 -5 -15 -10 -23 -8 -12 -10 -11 -10 8 0 12 5 22 10 22 6 0 10 -3 10 -7z m131 -16 c-13 -13 -26 -3 -16 12 3 6 11 8 17 5 6 -4 6 -10 -1 -17z m39 8 c0 -8 -4 -15 -10 -15 -5 0 -10 7 -10 15 0 8 5 15 10 15 6 0 10 -7 10 -15z m-270 -7 c0 -4 -7 -8 -15 -8 -8 0 -15 4 -15 8 0 5 7 9 15 9 8 0 15 -4 15 -9z m35 2 c3 -5 -1 -10 -9 -10 -9 0 -16 5 -16 10 0 6 4 10 9 10 6 0 13 -4 16 -10z m29 -6 c3 -8 2 -12 -4 -9 -6 3 -10 10 -10 16 0 14 7 11 14 -7z m106 8 c0 -5 -13 -8 -30 -8 -16 0 -30 3 -30 8 0 4 14 8 30 8 17 0 30 -4 30 -8z m30 4 c0 -3 -4 -8 -10 -11 -5 -3 -10 -1 -10 4 0 6 5 11 10 11 6 0 10 -2 10 -4z m-180 -46 c0 -5 -4 -10 -10 -10 -5 0 -10 5 -10 10 0 6 5 10 10 10 6 0 10 -4 10 -10z m33 -2 c5 -16 -3 -48 -12 -48 -3 0 -6 14 -6 30 0 30 10 40 18 18z m155 6 c14 -4 22 -14 21 -28 0 -20 -1 -20 -8 -1 -8 20 -8 20 -13 0 -5 -18 -6 -18 -7 3 0 13 -5 20 -11 17 -6 -4 -8 -10 -5 -15 3 -5 1 -11 -5 -15 -6 -4 -10 5 -10 19 0 28 3 29 38 20z m50 -19 c0 -14 -4 -25 -9 -25 -10 0 -12 34 -2 43 10 10 11 9 11 -18z m-278 -5 c-6 -11 -13 -20 -15 -20 -3 0 -5 9 -5 20 0 11 7 20 15 20 13 0 14 -4 5 -20z m148 -3 c2 -10 -3 -17 -12 -17 -10 0 -16 9 -16 21 0 24 23 21 28 -4z m-138 -35 c0 -4 -6 -14 -12 -21 -10 -11 -10 -13 0 -7 6 4 12 2 12 -3 0 -6 -7 -11 -15 -11 -9 0 -15 9 -15 25 0 16 6 25 15 25 8 0 15 -4 15 -8z m244 -20 c9 21 46 19 46 -2 0 -11 -11 -16 -38 -17 -34 -1 -38 1 -36 20 4 33 5 34 14 7 6 -21 8 -22 14 -8z m-144 -4 c0 -10 -4 -18 -10 -18 -5 0 -14 8 -19 18 -10 16 -10 16 -11 0 0 -10 -4 -18 -10 -18 -5 0 -10 9 -10 20 0 15 6 19 30 17 21 -1 30 -7 30 -19z m70 0 c0 -10 -5 -18 -11 -18 -5 0 -7 6 -3 13 5 8 2 8 -9 -2 -14 -11 -17 -11 -17 0 0 11 -2 11 -10 -1 -8 -12 -10 -11 -10 6 0 16 6 21 30 21 22 0 30 -5 30 -19z m27 2 c-1 -11 -5 -20 -9 -20 -4 0 -8 9 -8 20 0 11 4 20 9 20 6 0 9 -9 8 -20z m-167 0 c0 -5 -4 -10 -10 -10 -5 0 -10 5 -10 10 0 6 5 10 10 10 6 0 10 -4 10 -10z m1164 -68 c1 -43 -11 -41 -16 3 -2 20 0 34 6 32 5 -2 10 -17 10 -35z m-1202 -2 c5 -31 -6 -41 -16 -15 -5 13 1 45 9 45 1 0 5 -13 7 -30z m46 11 c29 -25 28 -30 -5 -28 -18 2 -27 9 -29 25 -5 27 4 27 34 3z m90 -11 c-2 -16 -1 -31 4 -32 10 -4 -2 -48 -13 -48 -4 0 -7 25 -6 55 1 30 6 55 11 55 4 0 6 -13 4 -30z m36 -20 c-1 -69 -11 -74 -12 -5 0 30 3 55 6 55 4 0 7 -23 6 -50z m103 19 c2 -12 -1 -18 -7 -14 -5 3 -10 16 -10 27 0 26 13 16 17 -13z m-170 0 c1 -12 -3 -19 -10 -16 -17 5 -21 37 -5 37 8 0 14 -9 15 -21z m96 1 c-3 -11 -7 -20 -9 -20 -2 0 -4 9 -4 20 0 11 4 20 9 20 5 0 7 -9 4 -20z m45 3 c-4 -22 -22 -20 -26 1 -2 10 3 16 13 16 10 0 15 -7 13 -17z m49 -5 c-3 -8 -6 -5 -6 6 -1 11 2 17 5 13 3 -3 4 -12 1 -19z m943 -9 c0 -6 -4 -7 -10 -4 -5 3 -10 11 -10 16 0 6 5 7 10 4 6 -3 10 -11 10 -16z m20 -53 c0 -4 -6 -6 -13 -3 -11 4 -12 -3 -7 -34 7 -38 7 -39 -21 -39 -25 0 -29 4 -29 28 l1 27 13 -24 c11 -19 14 -21 19 -7 4 9 2 26 -3 38 -5 13 -9 17 -9 11 -1 -22 -21 -14 -21 8 0 15 4 19 19 14 11 -3 23 -1 26 6 6 8 10 7 16 -2 5 -8 9 -18 9 -23z m-1150 4 c0 -21 -15 -27 -25 -10 -7 12 2 30 16 30 5 0 9 -9 9 -20z m100 0 c0 -11 -4 -20 -10 -20 -5 0 -10 9 -10 20 0 11 5 20 10 20 6 0 10 -9 10 -20z m40 -6 c0 -16 -16 -19 -25 -4 -8 13 4 32 16 25 5 -4 9 -13 9 -21z m1044 7 c16 -18 16 -18 -6 -18 -17 0 -24 5 -24 18 0 11 3 19 7 19 3 0 14 -8 23 -19z m-13 -61 c5 0 9 6 9 13 0 16 30 19 48 4 20 -16 15 -40 -8 -34 -14 3 -20 0 -20 -10 0 -13 -3 -13 -16 -2 -13 10 -17 10 -25 -2 -6 -10 -8 -2 -8 26 1 22 3 32 6 23 2 -10 9 -18 14 -18z m-1180 10 c5 0 9 -7 9 -15 0 -8 -7 -15 -15 -15 -8 0 -15 6 -15 13 0 8 -3 7 -10 -3 -11 -18 -25 -6 -16 16 4 10 12 14 22 10 9 -3 20 -6 25 -6z m109 -16 c0 -8 -4 -14 -10 -14 -5 0 -10 9 -10 21 0 11 5 17 10 14 6 -3 10 -13 10 -21z m39 -16 c1 -4 -5 -5 -13 -2 -8 3 -12 13 -8 27 5 20 6 20 13 1 4 -10 8 -22 8 -26z m-78 25 c-11 -5 -11 -7 0 -14 10 -6 8 -9 -8 -9 -13 0 -23 6 -23 13 0 8 -4 7 -10 -3 -8 -13 -10 -12 -10 3 0 13 8 17 33 16 17 0 26 -3 18 -6z m129 -9 c0 -6 -10 -10 -22 -9 -30 3 -30 3 -23 14 8 13 45 9 45 -5z m-260 -8 c0 -3 -4 -8 -10 -11 -5 -3 -10 -1 -10 4 0 6 5 11 10 11 6 0 10 -2 10 -4z m1340 -17 c0 -6 -4 -7 -10 -4 -5 3 -10 11 -10 16 0 6 5 7 10 4 6 -3 10 -11 10 -16z m-1270 -40 c0 -28 -15 -23 -18 7 -1 14 2 23 8 19 6 -3 10 -15 10 -26z m32 6 c3 -15 1 -25 -7 -25 -9 0 -12 28 -6 48 3 9 9 -2 13 -23z m136 -3 c-11 -13 -11 -14 1 -7 10 5 12 4 7 -3 -11 -18 -26 -14 -26 6 0 22 9 33 22 26 5 -3 3 -13 -4 -22z m-268 -3 c0 -24 -23 -21 -28 4 -2 10 3 17 12 17 10 0 16 -9 16 -21z m26 1 c0 -11 -4 -20 -8 -20 -4 0 -8 9 -8 20 0 11 4 20 8 20 4 0 8 -9 8 -20z m44 -2 c0 -17 -3 -19 -9 -9 -7 11 -9 11 -14 0 -3 -8 -6 -4 -6 9 -1 13 5 22 14 22 9 0 15 -9 15 -22z m87 -15 c-3 -10 -5 -4 -5 12 0 17 2 24 5 18 2 -7 2 -21 0 -30z m81 14 c2 -10 -3 -17 -12 -17 -9 0 -16 6 -17 13 0 9 -2 9 -6 -1 -6 -15 -23 -6 -23 14 0 21 54 12 58 -9z m962 11 c0 -9 3 -10 8 -2 4 6 32 11 63 12 53 0 57 -1 57 -24 0 -21 -4 -23 -22 -18 -11 4 -29 7 -38 6 -10 0 -18 7 -19 16 0 12 -3 11 -9 -5 -11 -27 -23 -29 -44 -7 -18 18 -21 34 -6 34 6 0 10 -6 10 -12z m214 -7 c9 -7 14 -17 11 -21 -7 -11 -45 0 -45 12 0 6 -7 5 -15 -2 -13 -10 -15 -9 -15 8 0 16 6 20 24 18 14 -1 32 -8 40 -15z m-1416 -67 c2 -14 1 -16 -6 -5 -8 11 -10 11 -15 0 -3 -8 -6 -4 -6 9 -1 28 23 25 27 -4z m32 6 c0 -11 -4 -20 -8 -20 -4 0 -8 9 -9 20 -1 11 2 20 8 20 5 0 9 -9 9 -20z m101 3 c0 -11 3 -13 6 -5 7 17 33 15 33 -3 0 -10 -10 -15 -28 -15 -21 0 -28 5 -28 20 0 25 16 27 17 3z m135 -8 c1 -8 -2 -15 -7 -15 -5 0 -9 10 -9 22 0 23 12 17 16 -7z m21 -7 c-3 -7 -5 -2 -5 12 0 14 2 19 5 13 2 -7 2 -19 0 -25z m911 5 c-2 -14 -8 -28 -14 -30 -7 -2 -9 8 -6 27 5 37 25 40 20 3z m30 -33 c1 -27 -4 -50 -9 -50 -6 0 -9 23 -7 54 4 67 16 64 16 -4z m72 40 c0 -23 -10 -25 -29 -7 -11 10 -12 9 -6 -2 5 -9 3 -12 -5 -9 -8 2 -15 9 -17 15 -4 10 5 14 50 22 4 0 7 -8 7 -19z m34 8 c5 -10 7 -10 12 0 9 19 24 14 24 -8 0 -16 -7 -20 -30 -20 -23 0 -30 4 -30 20 0 22 15 27 24 8z m-1264 -13 c0 -8 -6 -15 -13 -15 -8 0 -14 7 -14 15 0 8 6 15 14 15 7 0 13 -7 13 -15z m124 3 c-6 -10 -4 -10 7 0 19 18 39 15 39 -6 0 -27 -8 -31 -35 -18 -25 11 -34 36 -14 36 5 0 7 -6 3 -12z m1216 -3 c0 -8 -7 -15 -15 -15 -8 0 -15 7 -15 15 0 8 7 15 15 15 8 0 15 -7 15 -15z m65 5 c3 -6 -1 -17 -9 -26 -15 -14 -16 -13 -16 10 0 26 13 35 25 16z m-523 -55 c-2 -15 0 -25 7 -25 6 0 11 9 11 20 0 11 5 20 10 20 6 0 10 -11 10 -25 0 -23 -3 -25 -45 -23 -36 1 -45 5 -45 20 0 23 9 23 27 1 13 -17 14 -17 12 2 -2 28 0 35 10 35 4 0 6 -11 3 -25z m-855 -20 c2 -14 -1 -25 -7 -25 -5 0 -10 14 -10 32 0 35 12 30 17 -7z m35 10 c4 -17 1 -25 -8 -25 -12 0 -13 19 -5 48 3 9 9 -2 13 -23z m170 -23 c-3 -9 -8 -8 -18 5 -8 11 -13 13 -14 6 0 -17 -15 -16 -33 2 -13 13 -16 13 -21 0 -8 -22 -36 -18 -36 4 0 16 7 19 55 16 35 -1 55 2 56 9 0 6 4 2 8 -9 5 -11 6 -26 3 -33z m83 38 c4 -6 11 -8 16 -5 5 4 9 0 9 -8 0 -25 -14 -28 -28 -5 -13 23 -13 23 -9 -4 4 -30 -7 -38 -17 -13 -11 30 14 60 29 35z m265 -16 c0 -8 -6 -14 -14 -14 -8 0 -21 -3 -30 -6 -11 -4 -16 0 -16 14 0 11 6 22 13 25 20 6 47 -4 47 -19z m26 -4 c-1 -39 -16 -39 -16 0 0 17 4 30 9 30 4 0 8 -13 7 -30z m39 20 c7 -12 -3 -50 -13 -50 -4 0 -7 14 -7 30 0 30 8 39 20 20z m71 -6 c-3 -9 -6 -20 -6 -25 0 -5 -4 -9 -10 -9 -11 0 -14 33 -3 43 12 13 25 7 19 -9z m70 -23 c-13 -20 -26 -11 -26 16 0 25 1 26 16 11 9 -9 13 -21 10 -27z m440 9 c-1 -35 -16 -41 -16 -7 0 20 7 37 15 37 1 0 2 -13 1 -30z m-1305 11 c6 10 9 8 9 -9 0 -28 -24 -25 -27 4 -2 11 0 14 3 5 5 -11 8 -11 15 0z m40 -3 c0 -10 2 -10 6 0 2 6 12 12 21 11 11 0 12 -2 5 -6 -7 -2 -13 -9 -13 -14 0 -6 6 -7 13 -3 6 4 9 3 4 -1 -4 -5 -18 -9 -32 -10 -18 0 -25 5 -25 17 0 20 20 25 21 6z m139 -8 c0 -21 -15 -27 -25 -10 -7 12 2 30 16 30 5 0 9 -9 9 -20z m271 3 c1 -17 2 -17 6 0 2 9 10 17 18 17 8 0 11 -7 8 -20 -3 -13 -14 -20 -29 -20 -17 0 -24 6 -24 20 0 25 20 27 21 3z m69 3 c0 -19 -17 -29 -25 -16 -3 5 -1 10 5 10 6 0 8 5 5 10 -3 6 -1 10 4 10 6 0 11 -6 11 -14z m38 -9 c2 -10 -3 -17 -12 -17 -10 0 -16 9 -16 21 0 24 23 21 28 -4z m32 9 c0 -8 -4 -17 -9 -21 -6 -3 -9 4 -8 15 1 23 17 28 17 6z m235 -16 c-5 -8 -11 -8 -17 -2 -6 6 -7 16 -3 22 5 8 11 8 17 2 6 -6 7 -16 3 -22z m245 10 c0 -12 -9 -17 -30 -17 -22 0 -30 5 -30 18 0 13 8 17 30 17 21 -1 30 -6 30 -18z m70 0 c0 -11 -7 -20 -15 -20 -8 0 -15 9 -15 20 0 11 7 20 15 20 8 0 15 -9 15 -20z m25 0 c-2 -31 -15 -37 -15 -7 0 15 4 27 8 27 5 0 8 -9 7 -20z m45 6 c0 -7 -6 -19 -14 -25 -11 -9 -15 -8 -20 5 -3 9 -4 20 0 25 8 14 34 11 34 -5z m60 3 c0 8 2 12 5 10 6 -7 -6 -49 -14 -49 -4 0 -8 12 -9 28 -1 21 0 23 8 12 8 -12 10 -13 10 -1z m78 -12 c2 -10 -3 -17 -12 -17 -10 0 -16 9 -16 21 0 24 23 21 28 -4z m25 3 c-3 -11 -7 -20 -9 -20 -2 0 -4 9 -4 20 0 11 4 20 9 20 5 0 7 -9 4 -20z m57 8 c0 -9 4 -8 10 2 8 12 10 10 10 -9 0 -16 -4 -21 -15 -18 -8 4 -17 2 -20 -3 -11 -18 -25 -10 -25 15 0 18 5 25 20 25 11 0 20 -6 20 -12z m58 -11 c2 -10 -3 -17 -12 -17 -10 0 -16 9 -16 21 0 24 23 21 28 -4z m-734 -12 c-4 -8 -8 -15 -10 -15 -2 0 -4 7 -4 15 0 8 4 15 10 15 5 0 7 -7 4 -15z m346 5 c0 -5 -4 -10 -10 -10 -5 0 -10 5 -10 10 0 6 5 10 10 10 6 0 10 -4 10 -10z m-1090 -55 c0 -8 -4 -16 -9 -19 -5 -3 -8 5 -8 19 0 14 3 22 8 19 5 -3 9 -11 9 -19z m28 0 c0 -14 -4 -25 -9 -25 -5 0 -9 11 -9 25 0 14 4 25 9 25 5 0 9 -11 9 -25z m35 5 c-3 -11 -8 -20 -12 -20 -4 0 -7 9 -8 20 -1 11 4 20 12 20 8 0 11 -7 8 -20z m37 -6 c0 -16 -16 -19 -25 -4 -8 13 4 32 16 25 5 -4 9 -13 9 -21z m31 13 c-6 -8 -8 -17 -4 -20 3 -4 1 -7 -5 -7 -13 0 -16 22 -5 33 12 13 25 7 14 -6z m34 -12 c0 -14 -3 -25 -7 -25 -5 0 -8 11 -8 25 0 14 3 25 8 25 4 0 7 -11 7 -25z m73 2 c4 -20 -24 -23 -31 -4 -3 6 -6 3 -6 -7 -1 -15 -4 -17 -12 -9 -7 7 -9 18 -6 26 7 19 51 14 55 -6z m32 16 c0 -5 -5 -15 -10 -23 -8 -12 -10 -11 -10 8 0 12 5 22 10 22 6 0 10 -3 10 -7z m22 -18 c3 -13 1 -22 -3 -19 -9 5 -13 44 -5 44 2 0 6 -11 8 -25z m46 2 c2 -10 -3 -17 -12 -17 -10 0 -16 9 -16 21 0 24 23 21 28 -4z m72 2 c0 -24 -23 -21 -28 4 -2 10 3 17 12 17 10 0 16 -9 16 -21z m60 1 c-9 -6 -9 -9 1 -13 10 -4 9 -6 -3 -6 -10 -1 -18 5 -18 12 0 18 11 28 22 20 6 -3 5 -9 -2 -13z m66 5 c-3 -8 -1 -15 4 -15 6 0 10 7 10 16 0 20 24 13 28 -9 3 -13 -4 -17 -27 -17 -24 0 -31 4 -31 20 0 11 5 20 11 20 6 0 9 -7 5 -15z m85 -15 c6 0 7 5 4 10 -3 6 1 10 9 10 9 0 16 -7 16 -15 0 -10 -10 -15 -30 -15 -18 0 -30 5 -30 13 0 21 15 31 18 13 2 -9 8 -16 13 -16z m55 5 c1 -8 -2 -15 -7 -15 -5 0 -9 10 -9 22 0 23 12 17 16 -7z m34 8 c0 -13 3 -14 12 -5 16 16 28 15 28 -1 0 -8 -12 -14 -28 -15 -21 0 -28 4 -28 19 0 10 4 19 8 19 4 0 8 -8 8 -17z m110 -6 c0 -34 -10 -40 -31 -16 -12 14 -18 16 -22 7 -4 -9 -6 -7 -6 4 -1 15 7 18 52 27 4 0 7 -9 7 -22z m27 3 c-1 -11 -5 -20 -9 -20 -4 0 -8 9 -8 20 0 11 4 20 9 20 6 0 9 -9 8 -20z m41 -6 c2 -14 1 -16 -6 -5 -8 11 -10 11 -15 0 -3 -8 -6 -4 -6 9 -1 28 23 25 27 -4z m99 2 c-6 -18 -57 -20 -57 -2 0 15 26 25 48 18 7 -2 11 -10 9 -16z m43 -2 c0 -8 -7 -14 -15 -14 -8 0 -15 9 -15 20 0 13 5 18 15 14 8 -4 15 -12 15 -20z m129 17 c16 -10 6 -31 -14 -31 -9 0 -12 6 -8 18 5 14 3 13 -10 -3 -14 -17 -16 -18 -17 -3 0 14 12 25 30 27 3 0 11 -3 19 -8z m42 -21 c5 0 9 7 9 15 0 8 5 15 10 15 6 0 10 -8 10 -19 0 -12 -9 -20 -25 -23 -22 -5 -25 -2 -24 21 1 17 3 20 6 9 2 -10 9 -18 14 -18z m62 10 c-3 -11 -9 -20 -14 -20 -5 0 -9 9 -9 20 0 11 6 20 14 20 9 0 12 -7 9 -20z m32 -5 c0 -14 -3 -25 -7 -25 -5 0 -8 11 -8 25 0 14 3 25 8 25 4 0 7 -11 7 -25z m67 0 c-2 -14 -6 -25 -8 -25 -2 0 -4 11 -4 25 0 14 4 25 9 25 4 0 6 -11 3 -25z m34 0 c1 -8 -2 -15 -7 -15 -5 0 -9 10 -9 22 0 23 12 17 16 -7z m42 -1 c2 -14 1 -16 -6 -5 -8 11 -10 11 -15 0 -3 -8 -6 -4 -6 9 -1 28 23 25 27 -4z m35 6 c3 -12 0 -20 -7 -20 -6 0 -12 9 -13 20 -1 11 2 20 6 20 5 0 11 -9 14 -20z m-1103 0 c0 -5 -4 -10 -10 -10 -5 0 -10 5 -10 10 0 6 5 10 10 10 6 0 10 -4 10 -10z m66 -16 c-4 -9 -9 -15 -11 -12 -3 3 -3 13 1 22 4 9 9 15 11 12 3 -3 3 -13 -1 -22z m74 6 c0 -11 -4 -20 -10 -20 -5 0 -10 9 -10 20 0 11 5 20 10 20 6 0 10 -9 10 -20z m580 5 c0 -8 -4 -15 -10 -15 -5 0 -10 7 -10 15 0 8 5 15 10 15 6 0 10 -7 10 -15z m250 0 c0 -8 -7 -15 -15 -15 -8 0 -15 7 -15 15 0 8 7 15 15 15 8 0 15 -7 15 -15z m-420 -9 c0 -3 -4 -8 -10 -11 -5 -3 -10 -1 -10 4 0 6 5 11 10 11 6 0 10 -2 10 -4z m-853 -46 c-1 -11 -7 -20 -13 -20 -10 0 -12 15 -5 38 1 1 5 2 10 2 6 0 9 -9 8 -20z m130 -11 c2 -12 -1 -18 -7 -14 -5 3 -10 16 -10 27 0 26 13 16 17 -13z m42 -10 c1 -3 -5 -6 -12 -6 -11 0 -14 23 -7 47 1 5 18 -30 19 -41z m132 -2 c-7 -7 -12 -5 -17 7 -4 11 -1 21 7 27 17 11 26 -18 10 -34z m34 13 c0 -16 -3 -30 -7 -30 -5 0 -8 14 -8 30 0 17 3 30 8 30 4 0 7 -13 7 -30z m69 14 c3 -9 2 -23 -3 -31 -6 -12 -9 -8 -13 16 -5 32 5 42 16 15z m32 -13 c0 -16 -4 -27 -8 -25 -11 7 -10 54 1 54 5 0 8 -13 7 -29z m43 -13 c1 -5 -6 -8 -14 -8 -13 0 -15 16 -5 50 2 6 18 -31 19 -42z m27 26 c-3 -9 -6 -21 -7 -27 0 -7 -4 -3 -8 8 -9 22 -5 35 11 35 5 0 7 -7 4 -16z m31 -14 c0 -16 -4 -27 -9 -24 -10 6 -11 38 -1 47 9 10 10 10 10 -23z m70 15 c0 -8 -4 -15 -9 -15 -4 0 -8 7 -8 15 0 8 4 15 8 15 5 0 9 -7 9 -15z m42 -12 c1 9 8 17 16 17 8 0 15 -8 15 -17 0 -13 -9 -19 -30 -20 -26 -2 -29 1 -26 20 7 34 7 34 16 7 5 -17 8 -19 9 -7z m131 -3 c0 -31 -15 -30 -16 1 -1 15 3 26 7 23 5 -3 9 -14 9 -24z m98 5 c0 -13 -4 -22 -9 -19 -5 3 -9 14 -9 25 0 10 4 19 9 19 5 0 9 -11 9 -25z m207 -5 c0 -16 -3 -30 -7 -30 -5 0 -8 14 -8 30 0 17 3 30 8 30 4 0 7 -13 7 -30z m75 0 c0 -16 -4 -30 -8 -30 -5 0 -9 14 -9 30 0 17 4 30 9 30 4 0 8 -13 8 -30z m65 0 c1 -11 -2 -20 -6 -20 -9 0 -19 37 -11 44 8 9 16 -2 17 -24z m57 18 c11 2 15 -2 12 -15 -3 -11 -14 -18 -30 -18 -18 0 -24 5 -24 23 0 16 4 21 13 15 6 -4 20 -6 29 -5z m-1252 -13 c0 -8 -4 -15 -10 -15 -5 0 -10 7 -10 15 0 8 5 15 10 15 6 0 10 -7 10 -15z m53 1 c10 -8 14 -17 8 -20 -5 -3 -16 1 -24 9 -12 11 -17 12 -20 2 -3 -7 -6 -5 -6 6 -1 20 17 22 42 3z m117 -1 c0 -8 -4 -15 -9 -15 -13 0 -22 16 -14 24 11 11 23 6 23 -9z m39 -7 c-1 -20 -2 -20 -6 -4 -4 15 -7 16 -14 5 -7 -11 -9 -11 -9 4 0 9 7 17 15 17 9 0 15 -9 14 -22z m134 8 c3 -8 0 -17 -8 -19 -17 -7 -25 1 -18 19 7 18 19 18 26 0z m207 -7 c0 -24 -23 -21 -28 4 -2 10 3 17 12 17 10 0 16 -9 16 -21z m123 1 c-3 -12 -8 -19 -11 -16 -5 6 5 36 12 36 2 0 2 -9 -1 -20z m47 -5 c0 -14 -6 -25 -13 -25 -7 0 -14 11 -15 25 -1 16 3 25 13 25 9 0 15 -10 15 -25z m63 5 c-3 -11 -9 -20 -14 -20 -5 0 -9 9 -9 20 0 11 6 20 14 20 9 0 12 -7 9 -20z m37 0 c0 -21 -15 -27 -25 -10 -7 12 2 30 16 30 5 0 9 -9 9 -20z m70 -1 c0 -24 -23 -21 -28 4 -2 10 3 17 12 17 10 0 16 -9 16 -21z m70 -1 c0 -17 -3 -19 -9 -9 -7 11 -9 11 -14 0 -4 -10 -6 -9 -6 4 -1 9 -5 17 -10 17 -5 0 -12 -8 -14 -17 -4 -14 -5 -12 -6 5 -1 18 4 22 29 22 24 0 30 -4 30 -22z m70 -3 c0 -16 -6 -25 -15 -25 -9 0 -15 9 -15 25 0 16 6 25 15 25 9 0 15 -9 15 -25z m70 5 c0 -11 -7 -20 -15 -20 -8 0 -15 9 -15 20 0 11 7 20 15 20 8 0 15 -9 15 -20z m243 0 c-5 -18 -33 -23 -33 -6 0 6 -5 4 -10 -4 -7 -11 -12 -12 -21 -3 -17 17 -4 30 34 30 27 0 33 -4 30 -17z m-1413 -10 c0 -5 -4 -10 -10 -10 -5 0 -10 5 -10 10 0 6 5 10 10 10 6 0 10 -4 10 -10z m1222 -12 c-7 -7 -12 -8 -12 -2 0 6 3 14 7 17 3 4 9 5 12 2 2 -3 -1 -11 -7 -17z m-1157 -38 c1 -11 -2 -20 -7 -20 -4 0 -8 12 -8 27 0 30 13 24 15 -7z m37 5 c3 -15 1 -25 -7 -25 -9 0 -12 28 -6 48 3 9 9 -2 13 -23z m162 10 c17 0 17 -22 1 -39 -13 -13 -14 -20 -4 -38 l12 -23 -21 20 c-12 12 -16 24 -11 30 12 12 11 45 -1 45 -5 0 -10 -8 -11 -17 0 -11 -2 -13 -6 -5 -8 20 5 44 19 35 7 -4 17 -8 22 -8z m42 -15 c-1 -35 -16 -41 -16 -7 0 20 7 37 15 37 1 0 2 -13 1 -30z m102 5 c0 -14 -4 -25 -9 -25 -10 0 -12 34 -2 43 10 10 11 9 11 -18z m272 3 c7 -18 9 -19 9 -5 1 23 31 22 31 -1 0 -15 -9 -19 -45 -20 -39 -2 -45 1 -45 18 0 11 5 20 10 20 6 0 10 -7 10 -15 0 -8 5 -15 11 -15 6 0 8 9 4 20 -9 27 3 25 15 -2z m-712 -10 c-5 -32 -28 -35 -28 -4 0 17 5 26 16 26 10 0 14 -7 12 -22z m65 1 c-6 -21 -23 -26 -24 -6 0 10 -2 10 -6 0 -7 -19 -23 -15 -23 5 0 14 8 19 29 20 24 0 28 -3 24 -19z m107 1 c0 -21 -15 -27 -25 -10 -7 12 2 30 16 30 5 0 9 -9 9 -20z m33 6 c6 -15 -1 -26 -15 -26 -4 0 -8 9 -8 20 0 23 15 27 23 6z m29 -11 c3 -14 1 -25 -3 -25 -5 0 -9 11 -9 25 0 14 2 25 4 25 2 0 6 -11 8 -25z m176 3 c2 -11 -6 -15 -28 -16 -23 0 -30 4 -30 19 0 16 6 19 28 16 15 -2 28 -10 30 -19z m65 2 c3 -12 0 -20 -7 -20 -6 0 -12 9 -12 20 0 11 3 20 7 20 4 0 9 -9 12 -20z m37 0 c0 -21 -15 -27 -25 -10 -7 12 2 30 16 30 5 0 9 -9 9 -20z m40 -6 c0 -8 -7 -14 -15 -14 -15 0 -21 21 -9 33 10 9 24 -2 24 -19z m30 0 c0 -8 -4 -14 -10 -14 -5 0 -10 9 -10 21 0 11 5 17 10 14 6 -3 10 -13 10 -21z m27 12 c-3 -7 0 -19 6 -25 8 -8 7 -11 -6 -11 -11 0 -17 8 -17 25 0 14 5 25 11 25 6 0 9 -6 6 -14z m35 5 c7 11 8 9 6 -6 -4 -24 -22 -23 -25 2 -2 11 0 13 3 4 5 -11 8 -11 16 0z m148 -17 c0 -8 -7 -14 -15 -14 -15 0 -21 21 -9 33 10 9 24 -2 24 -19z m17 -6 c-3 -7 -5 -2 -5 12 0 14 2 19 5 13 2 -7 2 -19 0 -25z m36 12 c-3 -11 -7 -20 -9 -20 -2 0 -4 9 -4 20 0 11 4 20 9 20 5 0 7 -9 4 -20z m43 5 c21 21 34 19 34 -5 0 -16 -7 -20 -30 -20 -25 0 -30 4 -29 23 1 16 2 18 6 5 4 -16 6 -16 19 -3z m70 -21 c-5 -13 -10 -14 -18 -6 -6 6 -8 18 -4 28 5 13 10 14 18 6 6 -6 8 -18 4 -28z m30 16 c0 -11 -4 -20 -8 -20 -4 0 -8 9 -8 20 0 11 4 20 8 20 4 0 8 -9 8 -20z m34 3 c1 -17 1 -17 11 0 11 19 29 14 29 -9 0 -9 -10 -14 -28 -14 -21 0 -28 5 -29 20 -1 11 2 20 8 20 5 0 9 -8 9 -17z m70 -3 c0 -11 -4 -20 -10 -20 -5 0 -10 9 -10 20 0 11 5 20 10 20 6 0 10 -9 10 -20z m30 -7 c0 -20 -3 -24 -11 -16 -7 7 -9 19 -6 27 10 24 17 19 17 -11z m57 5 c-3 12 -1 22 4 22 5 0 9 -11 9 -25 0 -23 -3 -25 -27 -19 -36 9 -37 10 -29 31 7 16 9 16 27 -7 20 -24 21 -24 16 -2z m48 -3 c0 -14 -3 -25 -7 -25 -5 0 -8 11 -8 25 0 14 3 25 8 25 4 0 7 -11 7 -25z m38 5 c3 -12 0 -20 -7 -20 -6 0 -12 9 -13 20 -1 11 2 20 6 20 5 0 11 -9 14 -20z m37 13 c-1 -18 -18 -35 -24 -24 -4 6 -4 16 -1 21 7 12 25 13 25 3z m25 -18 c0 -14 -3 -25 -7 -25 -5 0 -8 11 -8 25 0 14 3 25 8 25 4 0 7 -11 7 -25z m45 -1 c0 -8 -7 -14 -15 -14 -15 0 -21 21 -9 33 10 9 24 -2 24 -19z m60 9 c1 -17 1 -17 11 0 13 23 29 22 29 -3 0 -15 -7 -20 -28 -20 -21 0 -28 5 -29 20 -1 11 2 20 8 20 5 0 9 -8 9 -17z m-30 -14 c0 -6 -4 -7 -10 -4 -5 3 -10 11 -10 16 0 6 5 7 10 4 6 -3 10 -11 10 -16z m-1400 -54 c0 -8 -4 -16 -9 -19 -5 -3 -8 5 -8 19 0 14 3 22 8 19 5 -3 9 -11 9 -19z m40 5 c0 -11 -7 -20 -15 -20 -15 0 -21 21 -8 33 12 13 23 7 23 -13z m22 -5 c-2 -14 -6 -25 -8 -25 -2 0 -4 11 -4 25 0 14 4 25 9 25 4 0 6 -11 3 -25z m68 5 c0 -11 -2 -20 -4 -20 -2 0 -6 9 -9 20 -3 11 -1 20 4 20 5 0 9 -9 9 -20z m38 -3 c2 -10 -3 -17 -12 -17 -10 0 -16 9 -16 21 0 24 23 21 28 -4z m32 -2 c0 -14 -2 -25 -4 -25 -2 0 -6 11 -8 25 -3 14 -1 25 3 25 5 0 9 -11 9 -25z m40 0 c0 -8 -4 -17 -10 -20 -6 -4 -10 5 -10 20 0 15 4 24 10 20 6 -3 10 -12 10 -20z m100 5 c0 -11 -6 -20 -14 -20 -9 0 -12 7 -9 20 3 11 9 20 14 20 5 0 9 -9 9 -20z m52 -18 c-8 -2 -18 1 -22 8 -6 9 -9 9 -13 -1 -4 -10 -6 -9 -6 4 -1 19 25 23 32 5 3 -7 6 -4 7 7 1 20 1 20 9 0 6 -14 4 -21 -7 -23z m44 13 c1 -8 -2 -15 -7 -15 -5 0 -9 10 -9 22 0 23 12 17 16 -7z m34 -2 c0 -19 -3 -24 -10 -17 -6 6 -8 18 -4 27 9 24 14 21 14 -10z m40 1 c0 -8 -4 -14 -10 -14 -5 0 -10 9 -10 21 0 11 5 17 10 14 6 -3 10 -13 10 -21z m170 0 c0 -17 -12 -18 -29 -1 -11 10 -13 10 -7 0 4 -8 1 -13 -8 -13 -11 0 -15 23 -7 36 6 8 51 -12 51 -22z m136 10 c-3 -9 -6 -18 -6 -20 0 -2 -4 -4 -9 -4 -7 0 -8 17 -2 38 1 1 6 2 12 2 6 0 8 -7 5 -16z m34 -4 c0 -11 -4 -20 -8 -20 -4 0 -8 9 -9 20 -1 11 2 20 8 20 5 0 9 -9 9 -20z m308 -3 c3 -13 -4 -17 -27 -17 -22 0 -31 5 -31 16 0 10 6 14 15 10 8 -3 15 -1 15 5 0 17 25 4 28 -14z m33 6 c0 -11 3 -13 6 -5 7 17 33 15 33 -3 0 -10 -10 -15 -28 -15 -21 0 -28 5 -28 20 0 25 16 27 17 3z m96 -20 c-3 -10 -5 -4 -5 12 0 17 2 24 5 18 2 -7 2 -21 0 -30z m43 17 c0 -21 -15 -27 -25 -10 -7 12 2 30 16 30 5 0 9 -9 9 -20z m33 7 c3 -8 2 -19 -3 -26 -5 -9 -9 -4 -12 13 -5 27 6 36 15 13z m35 -10 c2 -9 -2 -17 -9 -17 -7 0 -9 3 -6 7 4 3 1 13 -6 21 -10 13 -9 14 3 10 8 -2 16 -12 18 -21z m32 -2 c0 -14 -2 -25 -4 -25 -2 0 -6 11 -8 25 -3 14 -1 25 3 25 5 0 9 -11 9 -25z m-1326 0 c4 -10 -1 -15 -14 -15 -13 0 -18 5 -14 15 4 8 10 15 14 15 4 0 10 -7 14 -15z m473 0 c0 -8 -6 -15 -14 -15 -7 0 -13 7 -13 15 0 8 6 15 13 15 8 0 14 -7 14 -15z m33 0 c0 -8 -4 -15 -10 -15 -5 0 -10 7 -10 15 0 8 5 15 10 15 6 0 10 -7 10 -15z m97 0 c0 -8 -4 -15 -9 -15 -4 0 -8 7 -8 15 0 8 4 15 8 15 5 0 9 -7 9 -15z m43 0 c0 -8 -7 -15 -15 -15 -8 0 -15 7 -15 15 0 8 7 15 15 15 8 0 15 -7 15 -15z m170 0 c0 -8 -7 -15 -15 -15 -8 0 -15 7 -15 15 0 8 7 15 15 15 8 0 15 -7 15 -15z m50 3 c0 -9 4 -8 10 2 8 13 10 12 10 -2 0 -13 -8 -18 -30 -18 -20 0 -30 5 -30 15 0 8 9 15 20 15 11 0 20 -6 20 -12z m90 -3 c0 -10 -10 -15 -30 -15 -20 0 -30 5 -30 15 0 10 10 15 30 15 20 0 30 -5 30 -15z m24 0 c-4 -8 -8 -15 -10 -15 -2 0 -4 7 -4 15 0 8 4 15 10 15 5 0 7 -7 4 -15z m176 0 c0 -8 -4 -15 -8 -15 -5 0 -9 7 -9 15 0 8 4 15 9 15 4 0 8 -7 8 -15z m-380 -9 c0 -3 -4 -8 -10 -11 -5 -3 -10 -1 -10 4 0 6 5 11 10 11 6 0 10 -2 10 -4z"/> <path d="M2090 1479 c0 -5 5 -7 10 -4 6 3 10 8 10 11 0 2 -4 4 -10 4 -5 0 -10 -5 -10 -11z"/> <path d="M2030 1420 c-13 -8 -12 -10 3 -10 9 0 17 5 17 10 0 12 -1 12 -20 0z"/> <path d="M2595 2291 c20 -8 20 -8 0 -13 -14 -4 -15 -6 -4 -7 9 0 21 5 27 12 8 10 5 13 -16 14 -23 1 -24 0 -7 -6z"/> </g> </svg> 